solid Default
  facet normal 0.000000e+00 -1.000000e+00 -6.123234e-17
    outer loop
      vertex -1.645801e+01 -6.800000e+00 0.000000e+00
      vertex -1.190259e+01 -6.800000e+00 4.225830e+00
      vertex -1.645801e+01 -6.800000e+00 1.080005e+01
    endloop
  endfacet
  facet normal 0.000000e+00 -1.000000e+00 -6.123234e-17
    outer loop
      vertex -1.190259e+01 -6.800000e+00 4.225830e+00
      vertex -1.645801e+01 -6.800000e+00 0.000000e+00
      vertex -1.159454e+01 -6.800000e+00 3.943726e+00
    endloop
  endfacet
  facet normal 0.000000e+00 -1.000000e+00 -6.123234e-17
    outer loop
      vertex -1.159454e+01 -6.800000e+00 3.943726e+00
      vertex -1.645801e+01 -6.800000e+00 0.000000e+00
      vertex -1.122406e+01 -6.800000e+00 3.750977e+00
    endloop
  endfacet
  facet normal 0.000000e+00 -1.000000e+00 -6.123234e-17
    outer loop
      vertex -1.122406e+01 -6.800000e+00 3.750977e+00
      vertex -1.645801e+01 -6.800000e+00 0.000000e+00
      vertex -1.081622e+01 -6.800000e+00 3.660645e+00
    endloop
  endfacet
  facet normal 0.000000e+00 -1.000000e+00 -6.123234e-17
    outer loop
      vertex -1.081622e+01 -6.800000e+00 3.660645e+00
      vertex -1.645801e+01 -6.800000e+00 0.000000e+00
      vertex 1.645801e+01 -6.800000e+00 0.000000e+00
    endloop
  endfacet
  facet normal 0.000000e+00 -1.000000e+00 -6.123234e-17
    outer loop
      vertex -1.645801e+01 -6.800000e+00 1.080005e+01
      vertex -1.190259e+01 -6.800000e+00 4.225830e+00
      vertex -1.212708e+01 -6.800000e+00 4.578003e+00
    endloop
  endfacet
  facet normal 0.000000e+00 -1.000000e+00 -6.123234e-17
    outer loop
      vertex -1.645801e+01 -6.800000e+00 1.080005e+01
      vertex -1.212708e+01 -6.800000e+00 4.578003e+00
      vertex -1.225281e+01 -6.800000e+00 4.976318e+00
    endloop
  endfacet
  facet normal 0.000000e+00 -1.000000e+00 -6.123234e-17
    outer loop
      vertex -1.645801e+01 -6.800000e+00 1.080005e+01
      vertex -1.225281e+01 -6.800000e+00 4.976318e+00
      vertex -1.227112e+01 -6.800000e+00 5.393677e+00
    endloop
  endfacet
  facet normal 0.000000e+00 -1.000000e+00 -6.123234e-17
    outer loop
      vertex -1.081622e+01 -6.800000e+00 3.660645e+00
      vertex 1.645801e+01 -6.800000e+00 0.000000e+00
      vertex -1.039893e+01 -6.800000e+00 3.678955e+00
    endloop
  endfacet
  facet normal 0.000000e+00 -1.000000e+00 -6.123234e-17
    outer loop
      vertex -1.039893e+01 -6.800000e+00 3.678955e+00
      vertex 1.645801e+01 -6.800000e+00 0.000000e+00
      vertex -1.000061e+01 -6.800000e+00 3.804688e+00
    endloop
  endfacet
  facet normal 0.000000e+00 -1.000000e+00 -6.123234e-17
    outer loop
      vertex -1.000061e+01 -6.800000e+00 3.804688e+00
      vertex 1.645801e+01 -6.800000e+00 0.000000e+00
      vertex -9.648438e+00 -6.800000e+00 4.029175e+00
    endloop
  endfacet
  facet normal 0.000000e+00 -1.000000e+00 -6.123234e-17
    outer loop
      vertex -9.648438e+00 -6.800000e+00 4.029175e+00
      vertex 1.645801e+01 -6.800000e+00 0.000000e+00
      vertex -9.366272e+00 -6.800000e+00 4.337158e+00
    endloop
  endfacet
  facet normal 0.000000e+00 -1.000000e+00 -6.123234e-17
    outer loop
      vertex -9.366272e+00 -6.800000e+00 4.337158e+00
      vertex 1.645801e+01 -6.800000e+00 0.000000e+00
      vertex -9.173523e+00 -6.800000e+00 4.707764e+00
    endloop
  endfacet
  facet normal 0.000000e+00 -1.000000e+00 -6.123234e-17
    outer loop
      vertex -9.173523e+00 -6.800000e+00 4.707764e+00
      vertex 1.645801e+01 -6.800000e+00 0.000000e+00
      vertex -9.083252e+00 -6.800000e+00 5.115479e+00
    endloop
  endfacet
  facet normal 0.000000e+00 -1.000000e+00 -6.123234e-17
    outer loop
      vertex -1.645801e+01 -6.800000e+00 1.080005e+01
      vertex -1.095538e+01 -6.800000e+00 6.830200e+00
      vertex 1.645801e+01 -6.800000e+00 1.080005e+01
    endloop
  endfacet
  facet normal 0.000000e+00 -1.000000e+00 -6.123234e-17
    outer loop
      vertex -1.095538e+01 -6.800000e+00 6.830200e+00
      vertex -1.645801e+01 -6.800000e+00 1.080005e+01
      vertex -1.135370e+01 -6.800000e+00 6.704468e+00
    endloop
  endfacet
  facet normal 0.000000e+00 -1.000000e+00 -6.123234e-17
    outer loop
      vertex -1.135370e+01 -6.800000e+00 6.704468e+00
      vertex -1.645801e+01 -6.800000e+00 1.080005e+01
      vertex -1.170593e+01 -6.800000e+00 6.479980e+00
    endloop
  endfacet
  facet normal 0.000000e+00 -1.000000e+00 -6.123234e-17
    outer loop
      vertex -1.170593e+01 -6.800000e+00 6.479980e+00
      vertex -1.645801e+01 -6.800000e+00 1.080005e+01
      vertex -1.198804e+01 -6.800000e+00 6.171997e+00
    endloop
  endfacet
  facet normal 0.000000e+00 -1.000000e+00 -6.123234e-17
    outer loop
      vertex -1.198804e+01 -6.800000e+00 6.171997e+00
      vertex -1.645801e+01 -6.800000e+00 1.080005e+01
      vertex -1.218085e+01 -6.800000e+00 5.801392e+00
    endloop
  endfacet
  facet normal 0.000000e+00 -1.000000e+00 -6.123234e-17
    outer loop
      vertex -1.218085e+01 -6.800000e+00 5.801392e+00
      vertex -1.645801e+01 -6.800000e+00 1.080005e+01
      vertex -1.227112e+01 -6.800000e+00 5.393677e+00
    endloop
  endfacet
  facet normal 0.000000e+00 -1.000000e+00 -6.123234e-17
    outer loop
      vertex 1.645801e+01 -6.800000e+00 1.080005e+01
      vertex -1.095538e+01 -6.800000e+00 6.830200e+00
      vertex -1.053815e+01 -6.800000e+00 6.848511e+00
    endloop
  endfacet
  facet normal 0.000000e+00 -1.000000e+00 -6.123234e-17
    outer loop
      vertex 1.645801e+01 -6.800000e+00 1.080005e+01
      vertex -1.053815e+01 -6.800000e+00 6.848511e+00
      vertex -1.013031e+01 -6.800000e+00 6.758179e+00
    endloop
  endfacet
  facet normal 0.000000e+00 -1.000000e+00 -6.123234e-17
    outer loop
      vertex 1.645801e+01 -6.800000e+00 1.080005e+01
      vertex -1.013031e+01 -6.800000e+00 6.758179e+00
      vertex -9.759766e+00 -6.800000e+00 6.565430e+00
    endloop
  endfacet
  facet normal 0.000000e+00 -1.000000e+00 -6.123234e-17
    outer loop
      vertex 1.645801e+01 -6.800000e+00 1.080005e+01
      vertex -9.759766e+00 -6.800000e+00 6.565430e+00
      vertex -9.451782e+00 -6.800000e+00 6.283325e+00
    endloop
  endfacet
  facet normal 0.000000e+00 -1.000000e+00 -6.123234e-17
    outer loop
      vertex 1.645801e+01 -6.800000e+00 1.080005e+01
      vertex -9.451782e+00 -6.800000e+00 6.283325e+00
      vertex -9.227234e+00 -6.800000e+00 5.931152e+00
    endloop
  endfacet
  facet normal 0.000000e+00 -1.000000e+00 -6.123234e-17
    outer loop
      vertex 1.645801e+01 -6.800000e+00 1.080005e+01
      vertex -9.227234e+00 -6.800000e+00 5.931152e+00
      vertex -9.101563e+00 -6.800000e+00 5.532837e+00
    endloop
  endfacet
  facet normal 0.000000e+00 -1.000000e+00 -6.123234e-17
    outer loop
      vertex 1.645801e+01 -6.800000e+00 1.080005e+01
      vertex -9.101563e+00 -6.800000e+00 5.532837e+00
      vertex -9.083252e+00 -6.800000e+00 5.115479e+00
    endloop
  endfacet
  facet normal 0.000000e+00 -1.000000e+00 -6.123234e-17
    outer loop
      vertex 1.645801e+01 -6.800000e+00 1.080005e+01
      vertex -9.083252e+00 -6.800000e+00 5.115479e+00
      vertex 1.645801e+01 -6.800000e+00 0.000000e+00
    endloop
  endfacet
  facet normal -1.000000e+00 0.000000e+00 0.000000e+00
    outer loop
      vertex -1.645801e+01 2.599999e+00 0.000000e+00
      vertex -1.645801e+01 -6.800000e+00 1.080005e+01
      vertex -1.645801e+01 2.599999e+00 1.080005e+01
    endloop
  endfacet
  facet normal -1.000000e+00 0.000000e+00 0.000000e+00
    outer loop
      vertex -1.645801e+01 -6.800000e+00 1.080005e+01
      vertex -1.645801e+01 2.599999e+00 0.000000e+00
      vertex -1.645801e+01 -6.800000e+00 0.000000e+00
    endloop
  endfacet
  facet normal 0.000000e+00 1.000000e+00 6.123234e-17
    outer loop
      vertex -1.645801e+01 2.599999e+00 1.080005e+01
      vertex -1.198804e+01 2.599999e+00 6.171997e+00
      vertex -1.645801e+01 2.599999e+00 0.000000e+00
    endloop
  endfacet
  facet normal 0.000000e+00 1.000000e+00 6.123234e-17
    outer loop
      vertex -1.198804e+01 2.599999e+00 6.171997e+00
      vertex -1.645801e+01 2.599999e+00 1.080005e+01
      vertex -1.170593e+01 2.599999e+00 6.479980e+00
    endloop
  endfacet
  facet normal 0.000000e+00 1.000000e+00 6.123234e-17
    outer loop
      vertex -1.170593e+01 2.599999e+00 6.479980e+00
      vertex -1.645801e+01 2.599999e+00 1.080005e+01
      vertex -1.135370e+01 2.599999e+00 6.704468e+00
    endloop
  endfacet
  facet normal 0.000000e+00 1.000000e+00 6.123234e-17
    outer loop
      vertex -1.135370e+01 2.599999e+00 6.704468e+00
      vertex -1.645801e+01 2.599999e+00 1.080005e+01
      vertex -1.095538e+01 2.599999e+00 6.830200e+00
    endloop
  endfacet
  facet normal 0.000000e+00 1.000000e+00 6.123234e-17
    outer loop
      vertex -1.095538e+01 2.599999e+00 6.830200e+00
      vertex -1.645801e+01 2.599999e+00 1.080005e+01
      vertex 3.544617e+00 2.599999e+00 1.080005e+01
    endloop
  endfacet
  facet normal 0.000000e+00 1.000000e+00 6.123234e-17
    outer loop
      vertex -1.645801e+01 2.599999e+00 0.000000e+00
      vertex -1.198804e+01 2.599999e+00 6.171997e+00
      vertex -1.218085e+01 2.599999e+00 5.801392e+00
    endloop
  endfacet
  facet normal 0.000000e+00 1.000000e+00 6.123234e-17
    outer loop
      vertex -1.645801e+01 2.599999e+00 0.000000e+00
      vertex -1.218085e+01 2.599999e+00 5.801392e+00
      vertex -1.227112e+01 2.599999e+00 5.393677e+00
    endloop
  endfacet
  facet normal 0.000000e+00 1.000000e+00 6.123234e-17
    outer loop
      vertex -1.095538e+01 2.599999e+00 6.830200e+00
      vertex 3.544617e+00 2.599999e+00 1.080005e+01
      vertex -1.053815e+01 2.599999e+00 6.848511e+00
    endloop
  endfacet
  facet normal 0.000000e+00 1.000000e+00 6.123234e-17
    outer loop
      vertex -1.053815e+01 2.599999e+00 6.848511e+00
      vertex 3.544617e+00 2.599999e+00 1.080005e+01
      vertex -1.013031e+01 2.599999e+00 6.758179e+00
    endloop
  endfacet
  facet normal 0.000000e+00 1.000000e+00 6.123234e-17
    outer loop
      vertex -1.013031e+01 2.599999e+00 6.758179e+00
      vertex 3.544617e+00 2.599999e+00 1.080005e+01
      vertex -9.759766e+00 2.599999e+00 6.565430e+00
    endloop
  endfacet
  facet normal 0.000000e+00 1.000000e+00 6.123234e-17
    outer loop
      vertex -9.759766e+00 2.599999e+00 6.565430e+00
      vertex 3.544617e+00 2.599999e+00 1.080005e+01
      vertex -9.451782e+00 2.599999e+00 6.283325e+00
    endloop
  endfacet
  facet normal 0.000000e+00 1.000000e+00 6.123234e-17
    outer loop
      vertex -9.451782e+00 2.599999e+00 6.283325e+00
      vertex 3.544617e+00 2.599999e+00 1.080005e+01
      vertex -9.227234e+00 2.599999e+00 5.931152e+00
    endloop
  endfacet
  facet normal 0.000000e+00 1.000000e+00 6.123234e-17
    outer loop
      vertex -9.227234e+00 2.599999e+00 5.931152e+00
      vertex 3.544617e+00 2.599999e+00 1.080005e+01
      vertex -9.101563e+00 2.599999e+00 5.532837e+00
    endloop
  endfacet
  facet normal 0.000000e+00 1.000000e+00 6.123234e-17
    outer loop
      vertex -9.101563e+00 2.599999e+00 5.532837e+00
      vertex 3.544617e+00 2.599999e+00 1.080005e+01
      vertex -9.083252e+00 2.599999e+00 5.115479e+00
    endloop
  endfacet
  facet normal 0.000000e+00 1.000000e+00 6.123234e-17
    outer loop
      vertex -1.645801e+01 2.599999e+00 0.000000e+00
      vertex -1.122406e+01 2.599999e+00 3.750977e+00
      vertex 3.544617e+00 2.599999e+00 0.000000e+00
    endloop
  endfacet
  facet normal 0.000000e+00 1.000000e+00 6.123234e-17
    outer loop
      vertex -1.122406e+01 2.599999e+00 3.750977e+00
      vertex -1.645801e+01 2.599999e+00 0.000000e+00
      vertex -1.159454e+01 2.599999e+00 3.943726e+00
    endloop
  endfacet
  facet normal 0.000000e+00 1.000000e+00 6.123234e-17
    outer loop
      vertex -1.159454e+01 2.599999e+00 3.943726e+00
      vertex -1.645801e+01 2.599999e+00 0.000000e+00
      vertex -1.190259e+01 2.599999e+00 4.225830e+00
    endloop
  endfacet
  facet normal 0.000000e+00 1.000000e+00 6.123234e-17
    outer loop
      vertex -1.190259e+01 2.599999e+00 4.225830e+00
      vertex -1.645801e+01 2.599999e+00 0.000000e+00
      vertex -1.212708e+01 2.599999e+00 4.578003e+00
    endloop
  endfacet
  facet normal 0.000000e+00 1.000000e+00 6.123234e-17
    outer loop
      vertex -1.212708e+01 2.599999e+00 4.578003e+00
      vertex -1.645801e+01 2.599999e+00 0.000000e+00
      vertex -1.225281e+01 2.599999e+00 4.976318e+00
    endloop
  endfacet
  facet normal 0.000000e+00 1.000000e+00 6.123234e-17
    outer loop
      vertex -1.225281e+01 2.599999e+00 4.976318e+00
      vertex -1.645801e+01 2.599999e+00 0.000000e+00
      vertex -1.227112e+01 2.599999e+00 5.393677e+00
    endloop
  endfacet
  facet normal 0.000000e+00 1.000000e+00 6.123234e-17
    outer loop
      vertex 3.544617e+00 2.599999e+00 0.000000e+00
      vertex -1.122406e+01 2.599999e+00 3.750977e+00
      vertex -1.081622e+01 2.599999e+00 3.660645e+00
    endloop
  endfacet
  facet normal 0.000000e+00 1.000000e+00 6.123234e-17
    outer loop
      vertex 3.544617e+00 2.599999e+00 0.000000e+00
      vertex -1.081622e+01 2.599999e+00 3.660645e+00
      vertex -1.039893e+01 2.599999e+00 3.678955e+00
    endloop
  endfacet
  facet normal 0.000000e+00 1.000000e+00 6.123234e-17
    outer loop
      vertex 3.544617e+00 2.599999e+00 0.000000e+00
      vertex -1.039893e+01 2.599999e+00 3.678955e+00
      vertex -1.000061e+01 2.599999e+00 3.804688e+00
    endloop
  endfacet
  facet normal 0.000000e+00 1.000000e+00 6.123234e-17
    outer loop
      vertex 3.544617e+00 2.599999e+00 0.000000e+00
      vertex -1.000061e+01 2.599999e+00 3.804688e+00
      vertex -9.648438e+00 2.599999e+00 4.029175e+00
    endloop
  endfacet
  facet normal 0.000000e+00 1.000000e+00 6.123234e-17
    outer loop
      vertex 3.544617e+00 2.599999e+00 0.000000e+00
      vertex -9.648438e+00 2.599999e+00 4.029175e+00
      vertex -9.366272e+00 2.599999e+00 4.337158e+00
    endloop
  endfacet
  facet normal 0.000000e+00 1.000000e+00 6.123234e-17
    outer loop
      vertex 3.544617e+00 2.599999e+00 0.000000e+00
      vertex -9.366272e+00 2.599999e+00 4.337158e+00
      vertex -9.173523e+00 2.599999e+00 4.707764e+00
    endloop
  endfacet
  facet normal 0.000000e+00 1.000000e+00 6.123234e-17
    outer loop
      vertex 3.544617e+00 2.599999e+00 0.000000e+00
      vertex -9.173523e+00 2.599999e+00 4.707764e+00
      vertex -9.083252e+00 2.599999e+00 5.115479e+00
    endloop
  endfacet
  facet normal 0.000000e+00 1.000000e+00 6.123234e-17
    outer loop
      vertex 3.544617e+00 2.599999e+00 0.000000e+00
      vertex -9.083252e+00 2.599999e+00 5.115479e+00
      vertex 3.544617e+00 2.599999e+00 1.080005e+01
    endloop
  endfacet
  facet normal -7.933533e-01 6.087614e-01 3.727589e-17
    outer loop
      vertex 1.093683e+01 -4.922919e-01 0.000000e+00
      vertex 1.074615e+01 -7.408204e-01 8.200073e+00
      vertex 1.093683e+01 -4.922919e-01 8.200073e+00
    endloop
  endfacet
  facet normal -7.933533e-01 6.087614e-01 3.727589e-17
    outer loop
      vertex 1.074615e+01 -7.408204e-01 8.200073e+00
      vertex 1.093683e+01 -4.922919e-01 0.000000e+00
      vertex 1.074615e+01 -7.408204e-01 0.000000e+00
    endloop
  endfacet
  facet normal 1.000000e+00 0.000000e+00 0.000000e+00
    outer loop
      vertex 1.645801e+01 -6.800000e+00 0.000000e+00
      vertex 1.645801e+01 3.901170e+00 1.080005e+01
      vertex 1.645801e+01 -6.800000e+00 1.080005e+01
    endloop
  endfacet
  facet normal 1.000000e+00 0.000000e+00 0.000000e+00
    outer loop
      vertex 1.645801e+01 3.901170e+00 1.080005e+01
      vertex 1.645801e+01 -6.800000e+00 0.000000e+00
      vertex 1.645801e+01 3.901170e+00 0.000000e+00
    endloop
  endfacet
  facet normal -7.933533e-01 -6.087614e-01 -3.727589e-17
    outer loop
      vertex 1.074615e+01 9.562359e-01 0.000000e+00
      vertex 1.093683e+01 7.077079e-01 8.200073e+00
      vertex 1.074615e+01 9.562359e-01 8.200073e+00
    endloop
  endfacet
  facet normal -7.933533e-01 -6.087614e-01 -3.727589e-17
    outer loop
      vertex 1.093683e+01 7.077079e-01 8.200073e+00
      vertex 1.074615e+01 9.562359e-01 0.000000e+00
      vertex 1.093683e+01 7.077079e-01 0.000000e+00
    endloop
  endfacet
  facet normal -9.238795e-01 -3.826834e-01 -2.343260e-17
    outer loop
      vertex 1.093683e+01 7.077079e-01 0.000000e+00
      vertex 1.105670e+01 4.182906e-01 8.200073e+00
      vertex 1.093683e+01 7.077079e-01 8.200073e+00
    endloop
  endfacet
  facet normal -9.238795e-01 -3.826834e-01 -2.343260e-17
    outer loop
      vertex 1.105670e+01 4.182906e-01 8.200073e+00
      vertex 1.093683e+01 7.077079e-01 0.000000e+00
      vertex 1.105670e+01 4.182906e-01 0.000000e+00
    endloop
  endfacet
  facet normal 8.351107e-15 3.163408e-14 -1.000000e+00
    outer loop
      vertex -1.645801e+01 2.599999e+00 0.000000e+00
      vertex 1.645801e+01 -6.800000e+00 0.000000e+00
      vertex -1.645801e+01 -6.800000e+00 0.000000e+00
    endloop
  endfacet
  facet normal 8.351107e-15 3.163408e-14 -1.000000e+00
    outer loop
      vertex 1.645801e+01 -6.800000e+00 0.000000e+00
      vertex -1.645801e+01 2.599999e+00 0.000000e+00
      vertex 9.587036e+00 -1.051403e+00 0.000000e+00
    endloop
  endfacet
  facet normal 8.351107e-15 3.163408e-14 -1.000000e+00
    outer loop
      vertex 1.645801e+01 -6.800000e+00 0.000000e+00
      vertex 9.587036e+00 -1.051403e+00 0.000000e+00
      vertex 9.897644e+00 -1.092292e+00 0.000000e+00
    endloop
  endfacet
  facet normal 8.351107e-15 3.163408e-14 -1.000000e+00
    outer loop
      vertex 9.587036e+00 -1.051403e+00 0.000000e+00
      vertex -1.645801e+01 2.599999e+00 0.000000e+00
      vertex 9.297607e+00 -9.315224e-01 0.000000e+00
    endloop
  endfacet
  facet normal 8.351107e-15 3.163408e-14 -1.000000e+00
    outer loop
      vertex 9.297607e+00 -9.315224e-01 0.000000e+00
      vertex -1.645801e+01 2.599999e+00 0.000000e+00
      vertex 9.049072e+00 -7.408204e-01 0.000000e+00
    endloop
  endfacet
  facet normal 8.351107e-15 3.163408e-14 -1.000000e+00
    outer loop
      vertex 9.049072e+00 -7.408204e-01 0.000000e+00
      vertex -1.645801e+01 2.599999e+00 0.000000e+00
      vertex 8.858398e+00 -4.922919e-01 0.000000e+00
    endloop
  endfacet
  facet normal 8.351107e-15 3.163408e-14 -1.000000e+00
    outer loop
      vertex 8.858398e+00 -4.922919e-01 0.000000e+00
      vertex -1.645801e+01 2.599999e+00 0.000000e+00
      vertex 8.738525e+00 -2.028751e-01 0.000000e+00
    endloop
  endfacet
  facet normal 8.351107e-15 3.163408e-14 -1.000000e+00
    outer loop
      vertex 8.738525e+00 -2.028751e-01 0.000000e+00
      vertex -1.645801e+01 2.599999e+00 0.000000e+00
      vertex 8.697632e+00 1.077080e-01 0.000000e+00
    endloop
  endfacet
  facet normal 8.351107e-15 3.163408e-14 -1.000000e+00
    outer loop
      vertex 8.697632e+00 1.077080e-01 0.000000e+00
      vertex -1.645801e+01 2.599999e+00 0.000000e+00
      vertex 8.738525e+00 4.182906e-01 0.000000e+00
    endloop
  endfacet
  facet normal 8.351107e-15 3.163408e-14 -1.000000e+00
    outer loop
      vertex 8.738525e+00 4.182906e-01 0.000000e+00
      vertex -1.645801e+01 2.599999e+00 0.000000e+00
      vertex 8.858398e+00 7.077079e-01 0.000000e+00
    endloop
  endfacet
  facet normal 8.351107e-15 3.163408e-14 -1.000000e+00
    outer loop
      vertex 8.858398e+00 7.077079e-01 0.000000e+00
      vertex -1.645801e+01 2.599999e+00 0.000000e+00
      vertex 9.049072e+00 9.562359e-01 0.000000e+00
    endloop
  endfacet
  facet normal 8.351107e-15 3.163408e-14 -1.000000e+00
    outer loop
      vertex 9.049072e+00 9.562359e-01 0.000000e+00
      vertex -1.645801e+01 2.599999e+00 0.000000e+00
      vertex 9.297607e+00 1.146938e+00 0.000000e+00
    endloop
  endfacet
  facet normal 8.351107e-15 3.163408e-14 -1.000000e+00
    outer loop
      vertex 9.297607e+00 1.146938e+00 0.000000e+00
      vertex -1.645801e+01 2.599999e+00 0.000000e+00
      vertex 9.587036e+00 1.266819e+00 0.000000e+00
    endloop
  endfacet
  facet normal 8.351107e-15 3.163408e-14 -1.000000e+00
    outer loop
      vertex 9.587036e+00 1.266819e+00 0.000000e+00
      vertex -1.645801e+01 2.599999e+00 0.000000e+00
      vertex 9.897644e+00 1.307708e+00 0.000000e+00
    endloop
  endfacet
  facet normal 8.351107e-15 3.163408e-14 -1.000000e+00
    outer loop
      vertex 1.645801e+01 -6.800000e+00 0.000000e+00
      vertex 1.074615e+01 -7.408204e-01 0.000000e+00
      vertex 1.645801e+01 3.901170e+00 0.000000e+00
    endloop
  endfacet
  facet normal 8.351107e-15 3.163408e-14 -1.000000e+00
    outer loop
      vertex 1.074615e+01 -7.408204e-01 0.000000e+00
      vertex 1.645801e+01 -6.800000e+00 0.000000e+00
      vertex 1.049762e+01 -9.315224e-01 0.000000e+00
    endloop
  endfacet
  facet normal 8.351107e-15 3.163408e-14 -1.000000e+00
    outer loop
      vertex 1.049762e+01 -9.315224e-01 0.000000e+00
      vertex 1.645801e+01 -6.800000e+00 0.000000e+00
      vertex 1.020819e+01 -1.051403e+00 0.000000e+00
    endloop
  endfacet
  facet normal 8.351107e-15 3.163408e-14 -1.000000e+00
    outer loop
      vertex 1.020819e+01 -1.051403e+00 0.000000e+00
      vertex 1.645801e+01 -6.800000e+00 0.000000e+00
      vertex 9.897644e+00 -1.092292e+00 0.000000e+00
    endloop
  endfacet
  facet normal 8.351107e-15 3.163408e-14 -1.000000e+00
    outer loop
      vertex 1.645801e+01 3.901170e+00 0.000000e+00
      vertex 1.074615e+01 -7.408204e-01 0.000000e+00
      vertex 1.093683e+01 -4.922919e-01 0.000000e+00
    endloop
  endfacet
  facet normal 8.351107e-15 3.163408e-14 -1.000000e+00
    outer loop
      vertex 1.645801e+01 3.901170e+00 0.000000e+00
      vertex 1.093683e+01 -4.922919e-01 0.000000e+00
      vertex 1.105670e+01 -2.028751e-01 0.000000e+00
    endloop
  endfacet
  facet normal 8.351107e-15 3.163408e-14 -1.000000e+00
    outer loop
      vertex 1.645801e+01 3.901170e+00 0.000000e+00
      vertex 1.105670e+01 -2.028751e-01 0.000000e+00
      vertex 1.109760e+01 1.077080e-01 0.000000e+00
    endloop
  endfacet
  facet normal 8.351107e-15 3.163408e-14 -1.000000e+00
    outer loop
      vertex 1.645801e+01 3.901170e+00 0.000000e+00
      vertex 1.109760e+01 1.077080e-01 0.000000e+00
      vertex 1.105670e+01 4.182906e-01 0.000000e+00
    endloop
  endfacet
  facet normal 8.351107e-15 3.163408e-14 -1.000000e+00
    outer loop
      vertex 1.645801e+01 3.901170e+00 0.000000e+00
      vertex 1.105670e+01 4.182906e-01 0.000000e+00
      vertex 1.093683e+01 7.077079e-01 0.000000e+00
    endloop
  endfacet
  facet normal 8.351107e-15 3.163408e-14 -1.000000e+00
    outer loop
      vertex 1.645801e+01 3.901170e+00 0.000000e+00
      vertex 1.093683e+01 7.077079e-01 0.000000e+00
      vertex 1.074615e+01 9.562359e-01 0.000000e+00
    endloop
  endfacet
  facet normal 8.351107e-15 3.163408e-14 -1.000000e+00
    outer loop
      vertex 1.645801e+01 3.901170e+00 0.000000e+00
      vertex 1.074615e+01 9.562359e-01 0.000000e+00
      vertex 1.049762e+01 1.146938e+00 0.000000e+00
    endloop
  endfacet
  facet normal 8.351107e-15 3.163408e-14 -1.000000e+00
    outer loop
      vertex 1.645801e+01 3.901170e+00 0.000000e+00
      vertex 1.049762e+01 1.146938e+00 0.000000e+00
      vertex 1.020819e+01 1.266819e+00 0.000000e+00
    endloop
  endfacet
  facet normal 8.351107e-15 3.163408e-14 -1.000000e+00
    outer loop
      vertex 1.645801e+01 3.901170e+00 0.000000e+00
      vertex 1.020819e+01 1.266819e+00 0.000000e+00
      vertex 9.897644e+00 1.307708e+00 0.000000e+00
    endloop
  endfacet
  facet normal 8.351107e-15 3.163408e-14 -1.000000e+00
    outer loop
      vertex 1.645801e+01 3.901170e+00 0.000000e+00
      vertex 9.897644e+00 1.307708e+00 0.000000e+00
      vertex 3.544617e+00 2.599999e+00 0.000000e+00
    endloop
  endfacet
  facet normal 8.351107e-15 3.163408e-14 -1.000000e+00
    outer loop
      vertex 3.544617e+00 2.599999e+00 0.000000e+00
      vertex 9.897644e+00 1.307708e+00 0.000000e+00
      vertex -1.645801e+01 2.599999e+00 0.000000e+00
    endloop
  endfacet
  facet normal 8.351107e-15 3.163408e-14 -1.000000e+00
    outer loop
      vertex 1.645801e+01 3.901170e+00 0.000000e+00
      vertex 3.544617e+00 2.599999e+00 0.000000e+00
      vertex 3.544617e+00 5.566134e+00 0.000000e+00
    endloop
  endfacet
  facet normal 8.351107e-15 3.163408e-14 -1.000000e+00
    outer loop
      vertex 1.645801e+01 3.901170e+00 0.000000e+00
      vertex 3.544617e+00 5.566134e+00 0.000000e+00
      vertex 1.355914e+01 6.800000e+00 0.000000e+00
    endloop
  endfacet
  facet normal 8.351107e-15 3.163408e-14 -1.000000e+00
    outer loop
      vertex 1.355914e+01 6.800000e+00 0.000000e+00
      vertex 3.544617e+00 5.566134e+00 0.000000e+00
      vertex 5.858093e+00 6.800000e+00 0.000000e+00
    endloop
  endfacet
  facet normal -6.087614e-01 -7.933533e-01 -4.857888e-17
    outer loop
      vertex 1.074615e+01 9.562359e-01 0.000000e+00
      vertex 1.049762e+01 1.146938e+00 8.200073e+00
      vertex 1.049762e+01 1.146938e+00 0.000000e+00
    endloop
  endfacet
  facet normal -6.087614e-01 -7.933533e-01 -4.857888e-17
    outer loop
      vertex 1.049762e+01 1.146938e+00 8.200073e+00
      vertex 1.074615e+01 9.562359e-01 0.000000e+00
      vertex 1.074615e+01 9.562359e-01 8.200073e+00
    endloop
  endfacet
  facet normal -9.238795e-01 3.826834e-01 2.343260e-17
    outer loop
      vertex 1.105670e+01 -2.028751e-01 0.000000e+00
      vertex 1.093683e+01 -4.922919e-01 8.200073e+00
      vertex 1.105670e+01 -2.028751e-01 8.200073e+00
    endloop
  endfacet
  facet normal -9.238795e-01 3.826834e-01 2.343260e-17
    outer loop
      vertex 1.093683e+01 -4.922919e-01 8.200073e+00
      vertex 1.105670e+01 -2.028751e-01 0.000000e+00
      vertex 1.093683e+01 -4.922919e-01 0.000000e+00
    endloop
  endfacet
  facet normal -3.826834e-01 -9.238795e-01 -5.657131e-17
    outer loop
      vertex 1.049762e+01 1.146938e+00 0.000000e+00
      vertex 1.020819e+01 1.266819e+00 8.200073e+00
      vertex 1.020819e+01 1.266819e+00 0.000000e+00
    endloop
  endfacet
  facet normal -3.826834e-01 -9.238795e-01 -5.657131e-17
    outer loop
      vertex 1.020819e+01 1.266819e+00 8.200073e+00
      vertex 1.049762e+01 1.146938e+00 0.000000e+00
      vertex 1.049762e+01 1.146938e+00 8.200073e+00
    endloop
  endfacet
  facet normal -1.305262e-01 -9.914449e-01 -6.070849e-17
    outer loop
      vertex 1.020819e+01 1.266819e+00 0.000000e+00
      vertex 9.897644e+00 1.307708e+00 8.200073e+00
      vertex 9.897644e+00 1.307708e+00 0.000000e+00
    endloop
  endfacet
  facet normal -1.305262e-01 -9.914449e-01 -6.070849e-17
    outer loop
      vertex 9.897644e+00 1.307708e+00 8.200073e+00
      vertex 1.020819e+01 1.266819e+00 0.000000e+00
      vertex 1.020819e+01 1.266819e+00 8.200073e+00
    endloop
  endfacet
  facet normal 1.305262e-01 -9.914449e-01 -6.070849e-17
    outer loop
      vertex 9.897644e+00 1.307708e+00 0.000000e+00
      vertex 9.587036e+00 1.266819e+00 8.200073e+00
      vertex 9.587036e+00 1.266819e+00 0.000000e+00
    endloop
  endfacet
  facet normal 1.305262e-01 -9.914449e-01 -6.070849e-17
    outer loop
      vertex 9.587036e+00 1.266819e+00 8.200073e+00
      vertex 9.897644e+00 1.307708e+00 0.000000e+00
      vertex 9.897644e+00 1.307708e+00 8.200073e+00
    endloop
  endfacet
  facet normal -9.914449e-01 1.305262e-01 7.992423e-18
    outer loop
      vertex 1.109760e+01 1.077080e-01 0.000000e+00
      vertex 1.105670e+01 -2.028751e-01 8.200073e+00
      vertex 1.109760e+01 1.077080e-01 8.200073e+00
    endloop
  endfacet
  facet normal -9.914449e-01 1.305262e-01 7.992423e-18
    outer loop
      vertex 1.105670e+01 -2.028751e-01 8.200073e+00
      vertex 1.109760e+01 1.077080e-01 0.000000e+00
      vertex 1.105670e+01 -2.028751e-01 0.000000e+00
    endloop
  endfacet
  facet normal 0.000000e+00 1.000000e+00 6.123234e-17
    outer loop
      vertex 1.355914e+01 6.800000e+00 1.080005e+01
      vertex 5.858093e+00 6.800000e+00 0.000000e+00
      vertex 5.858093e+00 6.800000e+00 1.080005e+01
    endloop
  endfacet
  facet normal 0.000000e+00 1.000000e+00 6.123234e-17
    outer loop
      vertex 5.858093e+00 6.800000e+00 0.000000e+00
      vertex 1.355914e+01 6.800000e+00 1.080005e+01
      vertex 1.355914e+01 6.800000e+00 0.000000e+00
    endloop
  endfacet
  facet normal -1.000000e+00 0.000000e+00 0.000000e+00
    outer loop
      vertex 3.544617e+00 5.566134e+00 0.000000e+00
      vertex 3.544617e+00 2.599999e+00 1.080005e+01
      vertex 3.544617e+00 5.566134e+00 1.080005e+01
    endloop
  endfacet
  facet normal -1.000000e+00 0.000000e+00 0.000000e+00
    outer loop
      vertex 3.544617e+00 2.599999e+00 1.080005e+01
      vertex 3.544617e+00 5.566134e+00 0.000000e+00
      vertex 3.544617e+00 2.599999e+00 0.000000e+00
    endloop
  endfacet
  facet normal -9.914449e-01 -1.305262e-01 -7.992423e-18
    outer loop
      vertex 1.105670e+01 4.182906e-01 0.000000e+00
      vertex 1.109760e+01 1.077080e-01 8.200073e+00
      vertex 1.105670e+01 4.182906e-01 8.200073e+00
    endloop
  endfacet
  facet normal -9.914449e-01 -1.305262e-01 -7.992423e-18
    outer loop
      vertex 1.109760e+01 1.077080e-01 8.200073e+00
      vertex 1.105670e+01 4.182906e-01 0.000000e+00
      vertex 1.109760e+01 1.077080e-01 0.000000e+00
    endloop
  endfacet
  facet normal 6.087614e-01 -7.933533e-01 -4.857888e-17
    outer loop
      vertex 9.297607e+00 1.146938e+00 0.000000e+00
      vertex 9.049072e+00 9.562359e-01 8.200073e+00
      vertex 9.049072e+00 9.562359e-01 0.000000e+00
    endloop
  endfacet
  facet normal 6.087614e-01 -7.933533e-01 -4.857888e-17
    outer loop
      vertex 9.049072e+00 9.562359e-01 8.200073e+00
      vertex 9.297607e+00 1.146938e+00 0.000000e+00
      vertex 9.297607e+00 1.146938e+00 8.200073e+00
    endloop
  endfacet
  facet normal 3.826834e-01 -9.238795e-01 -5.657131e-17
    outer loop
      vertex 9.587036e+00 1.266819e+00 0.000000e+00
      vertex 9.297607e+00 1.146938e+00 8.200073e+00
      vertex 9.297607e+00 1.146938e+00 0.000000e+00
    endloop
  endfacet
  facet normal 3.826834e-01 -9.238795e-01 -5.657131e-17
    outer loop
      vertex 9.297607e+00 1.146938e+00 8.200073e+00
      vertex 9.587036e+00 1.266819e+00 0.000000e+00
      vertex 9.587036e+00 1.266819e+00 8.200073e+00
    endloop
  endfacet
  facet normal -1.305262e-01 9.914449e-01 6.070849e-17
    outer loop
      vertex 1.020819e+01 -1.051403e+00 8.200073e+00
      vertex 9.897644e+00 -1.092292e+00 0.000000e+00
      vertex 9.897644e+00 -1.092292e+00 8.200073e+00
    endloop
  endfacet
  facet normal -1.305262e-01 9.914449e-01 6.070849e-17
    outer loop
      vertex 9.897644e+00 -1.092292e+00 0.000000e+00
      vertex 1.020819e+01 -1.051403e+00 8.200073e+00
      vertex 1.020819e+01 -1.051403e+00 0.000000e+00
    endloop
  endfacet
  facet normal 1.305262e-01 9.914449e-01 6.070849e-17
    outer loop
      vertex 9.897644e+00 -1.092292e+00 8.200073e+00
      vertex 9.587036e+00 -1.051403e+00 0.000000e+00
      vertex 9.587036e+00 -1.051403e+00 8.200073e+00
    endloop
  endfacet
  facet normal 1.305262e-01 9.914449e-01 6.070849e-17
    outer loop
      vertex 9.587036e+00 -1.051403e+00 0.000000e+00
      vertex 9.897644e+00 -1.092292e+00 8.200073e+00
      vertex 9.897644e+00 -1.092292e+00 0.000000e+00
    endloop
  endfacet
  facet normal 3.826834e-01 9.238795e-01 5.657131e-17
    outer loop
      vertex 9.587036e+00 -1.051403e+00 8.200073e+00
      vertex 9.297607e+00 -9.315224e-01 0.000000e+00
      vertex 9.297607e+00 -9.315224e-01 8.200073e+00
    endloop
  endfacet
  facet normal 3.826834e-01 9.238795e-01 5.657131e-17
    outer loop
      vertex 9.297607e+00 -9.315224e-01 0.000000e+00
      vertex 9.587036e+00 -1.051403e+00 8.200073e+00
      vertex 9.587036e+00 -1.051403e+00 0.000000e+00
    endloop
  endfacet
  facet normal 6.087614e-01 7.933533e-01 4.857888e-17
    outer loop
      vertex 9.297607e+00 -9.315224e-01 8.200073e+00
      vertex 9.049072e+00 -7.408204e-01 0.000000e+00
      vertex 9.049072e+00 -7.408204e-01 8.200073e+00
    endloop
  endfacet
  facet normal 6.087614e-01 7.933533e-01 4.857888e-17
    outer loop
      vertex 9.049072e+00 -7.408204e-01 0.000000e+00
      vertex 9.297607e+00 -9.315224e-01 8.200073e+00
      vertex 9.297607e+00 -9.315224e-01 0.000000e+00
    endloop
  endfacet
  facet normal 7.933533e-01 6.087614e-01 3.727589e-17
    outer loop
      vertex 9.049072e+00 -7.408204e-01 0.000000e+00
      vertex 8.858398e+00 -4.922919e-01 8.200073e+00
      vertex 9.049072e+00 -7.408204e-01 8.200073e+00
    endloop
  endfacet
  facet normal 7.933533e-01 6.087614e-01 3.727589e-17
    outer loop
      vertex 8.858398e+00 -4.922919e-01 8.200073e+00
      vertex 9.049072e+00 -7.408204e-01 0.000000e+00
      vertex 8.858398e+00 -4.922919e-01 0.000000e+00
    endloop
  endfacet
  facet normal 9.238795e-01 3.826834e-01 2.343260e-17
    outer loop
      vertex 8.858398e+00 -4.922919e-01 0.000000e+00
      vertex 8.738525e+00 -2.028751e-01 8.200073e+00
      vertex 8.858398e+00 -4.922919e-01 8.200073e+00
    endloop
  endfacet
  facet normal 9.238795e-01 3.826834e-01 2.343260e-17
    outer loop
      vertex 8.738525e+00 -2.028751e-01 8.200073e+00
      vertex 8.858398e+00 -4.922919e-01 0.000000e+00
      vertex 8.738525e+00 -2.028751e-01 0.000000e+00
    endloop
  endfacet
  facet normal 9.914449e-01 1.305262e-01 7.992423e-18
    outer loop
      vertex 8.738525e+00 -2.028751e-01 0.000000e+00
      vertex 8.697632e+00 1.077080e-01 8.200073e+00
      vertex 8.738525e+00 -2.028751e-01 8.200073e+00
    endloop
  endfacet
  facet normal 9.914449e-01 1.305262e-01 7.992423e-18
    outer loop
      vertex 8.697632e+00 1.077080e-01 8.200073e+00
      vertex 8.738525e+00 -2.028751e-01 0.000000e+00
      vertex 8.697632e+00 1.077080e-01 0.000000e+00
    endloop
  endfacet
  facet normal -3.826834e-01 9.238795e-01 5.657131e-17
    outer loop
      vertex 1.049762e+01 -9.315224e-01 8.200073e+00
      vertex 1.020819e+01 -1.051403e+00 0.000000e+00
      vertex 1.020819e+01 -1.051403e+00 8.200073e+00
    endloop
  endfacet
  facet normal -3.826834e-01 9.238795e-01 5.657131e-17
    outer loop
      vertex 1.020819e+01 -1.051403e+00 0.000000e+00
      vertex 1.049762e+01 -9.315224e-01 8.200073e+00
      vertex 1.049762e+01 -9.315224e-01 0.000000e+00
    endloop
  endfacet
  facet normal 9.914449e-01 -1.305262e-01 -7.992423e-18
    outer loop
      vertex 8.697632e+00 1.077080e-01 0.000000e+00
      vertex 8.738525e+00 4.182906e-01 8.200073e+00
      vertex 8.697632e+00 1.077080e-01 8.200073e+00
    endloop
  endfacet
  facet normal 9.914449e-01 -1.305262e-01 -7.992423e-18
    outer loop
      vertex 8.738525e+00 4.182906e-01 8.200073e+00
      vertex 8.697632e+00 1.077080e-01 0.000000e+00
      vertex 8.738525e+00 4.182906e-01 0.000000e+00
    endloop
  endfacet
  facet normal -6.087614e-01 7.933533e-01 4.857888e-17
    outer loop
      vertex 1.074615e+01 -7.408204e-01 8.200073e+00
      vertex 1.049762e+01 -9.315224e-01 0.000000e+00
      vertex 1.049762e+01 -9.315224e-01 8.200073e+00
    endloop
  endfacet
  facet normal -6.087614e-01 7.933533e-01 4.857888e-17
    outer loop
      vertex 1.049762e+01 -9.315224e-01 0.000000e+00
      vertex 1.074615e+01 -7.408204e-01 8.200073e+00
      vertex 1.074615e+01 -7.408204e-01 0.000000e+00
    endloop
  endfacet
  facet normal -6.754068e-01 4.515551e-17 -7.374454e-01
    outer loop
      vertex -9.759766e+00 2.599999e+00 6.565430e+00
      vertex -9.451782e+00 -6.800000e+00 6.283325e+00
      vertex -9.759766e+00 -6.800000e+00 6.565430e+00
    endloop
  endfacet
  facet normal -6.754068e-01 4.515551e-17 -7.374454e-01
    outer loop
      vertex -9.451782e+00 -6.800000e+00 6.283325e+00
      vertex -9.759766e+00 2.599999e+00 6.565430e+00
      vertex -9.451782e+00 2.599999e+00 6.283325e+00
    endloop
  endfacet
  facet normal 6.754068e-01 -4.515551e-17 7.374454e-01
    outer loop
      vertex -1.159454e+01 2.599999e+00 3.943726e+00
      vertex -1.190259e+01 -6.800000e+00 4.225830e+00
      vertex -1.159454e+01 -6.800000e+00 3.943726e+00
    endloop
  endfacet
  facet normal 6.754068e-01 -4.515551e-17 7.374454e-01
    outer loop
      vertex -1.190259e+01 -6.800000e+00 4.225830e+00
      vertex -1.159454e+01 2.599999e+00 3.943726e+00
      vertex -1.190259e+01 2.599999e+00 4.225830e+00
    endloop
  endfacet
  facet normal 4.615279e-01 -5.432078e-17 8.871257e-01
    outer loop
      vertex -1.122406e+01 2.599999e+00 3.750977e+00
      vertex -1.159454e+01 -6.800000e+00 3.943726e+00
      vertex -1.122406e+01 -6.800000e+00 3.750977e+00
    endloop
  endfacet
  facet normal 4.615279e-01 -5.432078e-17 8.871257e-01
    outer loop
      vertex -1.159454e+01 -6.800000e+00 3.943726e+00
      vertex -1.122406e+01 2.599999e+00 3.750977e+00
      vertex -1.159454e+01 2.599999e+00 3.943726e+00
    endloop
  endfacet
  facet normal 9.238795e-01 -3.826834e-01 -2.343260e-17
    outer loop
      vertex 8.738525e+00 4.182906e-01 0.000000e+00
      vertex 8.858398e+00 7.077079e-01 8.200073e+00
      vertex 8.738525e+00 4.182906e-01 8.200073e+00
    endloop
  endfacet
  facet normal 9.238795e-01 -3.826834e-01 -2.343260e-17
    outer loop
      vertex 8.858398e+00 7.077079e-01 8.200073e+00
      vertex 8.738525e+00 4.182906e-01 0.000000e+00
      vertex 8.858398e+00 7.077079e-01 0.000000e+00
    endloop
  endfacet
  facet normal 2.161967e-01 -5.978419e-17 9.763498e-01
    outer loop
      vertex -1.081622e+01 2.599999e+00 3.660645e+00
      vertex -1.122406e+01 -6.800000e+00 3.750977e+00
      vertex -1.081622e+01 -6.800000e+00 3.660645e+00
    endloop
  endfacet
  facet normal 2.161967e-01 -5.978419e-17 9.763498e-01
    outer loop
      vertex -1.122406e+01 -6.800000e+00 3.750977e+00
      vertex -1.081622e+01 2.599999e+00 3.660645e+00
      vertex -1.122406e+01 2.599999e+00 3.750977e+00
    endloop
  endfacet
  facet normal -4.386795e-02 -6.117339e-17 9.990373e-01
    outer loop
      vertex -1.039893e+01 2.599999e+00 3.678955e+00
      vertex -1.081622e+01 -6.800000e+00 3.660645e+00
      vertex -1.039893e+01 -6.800000e+00 3.678955e+00
    endloop
  endfacet
  facet normal -4.386795e-02 -6.117339e-17 9.990373e-01
    outer loop
      vertex -1.081622e+01 -6.800000e+00 3.660645e+00
      vertex -1.039893e+01 2.599999e+00 3.678955e+00
      vertex -1.081622e+01 2.599999e+00 3.660645e+00
    endloop
  endfacet
  facet normal -3.009431e-01 -5.839374e-17 9.536421e-01
    outer loop
      vertex -1.000061e+01 2.599999e+00 3.804688e+00
      vertex -1.039893e+01 -6.800000e+00 3.678955e+00
      vertex -1.000061e+01 -6.800000e+00 3.804688e+00
    endloop
  endfacet
  facet normal -3.009431e-01 -5.839374e-17 9.536421e-01
    outer loop
      vertex -1.039893e+01 -6.800000e+00 3.678955e+00
      vertex -1.000061e+01 2.599999e+00 3.804688e+00
      vertex -1.039893e+01 2.599999e+00 3.678955e+00
    endloop
  endfacet
  facet normal -5.375094e-01 -5.163464e-17 8.432577e-01
    outer loop
      vertex -9.648438e+00 2.599999e+00 4.029175e+00
      vertex -1.000061e+01 -6.800000e+00 3.804688e+00
      vertex -9.648438e+00 -6.800000e+00 4.029175e+00
    endloop
  endfacet
  facet normal -5.375094e-01 -5.163464e-17 8.432577e-01
    outer loop
      vertex -1.000061e+01 -6.800000e+00 3.804688e+00
      vertex -9.648438e+00 2.599999e+00 4.029175e+00
      vertex -1.000061e+01 2.599999e+00 3.804688e+00
    endloop
  endfacet
  facet normal -7.374454e-01 -4.135673e-17 6.754068e-01
    outer loop
      vertex -9.648438e+00 2.599999e+00 4.029175e+00
      vertex -9.366272e+00 -6.800000e+00 4.337158e+00
      vertex -9.366272e+00 2.599999e+00 4.337158e+00
    endloop
  endfacet
  facet normal -7.374454e-01 -4.135673e-17 6.754068e-01
    outer loop
      vertex -9.366272e+00 -6.800000e+00 4.337158e+00
      vertex -9.648438e+00 2.599999e+00 4.029175e+00
      vertex -9.648438e+00 -6.800000e+00 4.029175e+00
    endloop
  endfacet
  facet normal -8.871257e-01 -2.826043e-17 4.615279e-01
    outer loop
      vertex -9.366272e+00 2.599999e+00 4.337158e+00
      vertex -9.173523e+00 -6.800000e+00 4.707764e+00
      vertex -9.173523e+00 2.599999e+00 4.707764e+00
    endloop
  endfacet
  facet normal -8.871257e-01 -2.826043e-17 4.615279e-01
    outer loop
      vertex -9.173523e+00 -6.800000e+00 4.707764e+00
      vertex -9.366272e+00 2.599999e+00 4.337158e+00
      vertex -9.366272e+00 -6.800000e+00 4.337158e+00
    endloop
  endfacet
  facet normal -9.763498e-01 -1.323823e-17 2.161967e-01
    outer loop
      vertex -9.173523e+00 2.599999e+00 4.707764e+00
      vertex -9.083252e+00 -6.800000e+00 5.115479e+00
      vertex -9.083252e+00 2.599999e+00 5.115479e+00
    endloop
  endfacet
  facet normal -9.763498e-01 -1.323823e-17 2.161967e-01
    outer loop
      vertex -9.083252e+00 -6.800000e+00 5.115479e+00
      vertex -9.173523e+00 2.599999e+00 4.707764e+00
      vertex -9.173523e+00 -6.800000e+00 4.707764e+00
    endloop
  endfacet
  facet normal -9.990373e-01 2.686137e-18 -4.386795e-02
    outer loop
      vertex -9.083252e+00 2.599999e+00 5.115479e+00
      vertex -9.101563e+00 -6.800000e+00 5.532837e+00
      vertex -9.101563e+00 2.599999e+00 5.532837e+00
    endloop
  endfacet
  facet normal -9.990373e-01 2.686137e-18 -4.386795e-02
    outer loop
      vertex -9.101563e+00 -6.800000e+00 5.532837e+00
      vertex -9.083252e+00 2.599999e+00 5.115479e+00
      vertex -9.083252e+00 -6.800000e+00 5.115479e+00
    endloop
  endfacet
  facet normal -4.615279e-01 5.432078e-17 -8.871257e-01
    outer loop
      vertex -1.013031e+01 2.599999e+00 6.758179e+00
      vertex -9.759766e+00 -6.800000e+00 6.565430e+00
      vertex -1.013031e+01 -6.800000e+00 6.758179e+00
    endloop
  endfacet
  facet normal -4.615279e-01 5.432078e-17 -8.871257e-01
    outer loop
      vertex -9.759766e+00 -6.800000e+00 6.565430e+00
      vertex -1.013031e+01 2.599999e+00 6.758179e+00
      vertex -9.759766e+00 2.599999e+00 6.565430e+00
    endloop
  endfacet
  facet normal -2.161967e-01 5.978419e-17 -9.763498e-01
    outer loop
      vertex -1.053815e+01 2.599999e+00 6.848511e+00
      vertex -1.013031e+01 -6.800000e+00 6.758179e+00
      vertex -1.053815e+01 -6.800000e+00 6.848511e+00
    endloop
  endfacet
  facet normal -2.161967e-01 5.978419e-17 -9.763498e-01
    outer loop
      vertex -1.013031e+01 -6.800000e+00 6.758179e+00
      vertex -1.053815e+01 2.599999e+00 6.848511e+00
      vertex -1.013031e+01 2.599999e+00 6.758179e+00
    endloop
  endfacet
  facet normal 4.386795e-02 6.117339e-17 -9.990373e-01
    outer loop
      vertex -1.095538e+01 2.599999e+00 6.830200e+00
      vertex -1.053815e+01 -6.800000e+00 6.848511e+00
      vertex -1.095538e+01 -6.800000e+00 6.830200e+00
    endloop
  endfacet
  facet normal 4.386795e-02 6.117339e-17 -9.990373e-01
    outer loop
      vertex -1.053815e+01 -6.800000e+00 6.848511e+00
      vertex -1.095538e+01 2.599999e+00 6.830200e+00
      vertex -1.053815e+01 2.599999e+00 6.848511e+00
    endloop
  endfacet
  facet normal 3.009431e-01 5.839374e-17 -9.536421e-01
    outer loop
      vertex -1.135370e+01 2.599999e+00 6.704468e+00
      vertex -1.095538e+01 -6.800000e+00 6.830200e+00
      vertex -1.135370e+01 -6.800000e+00 6.704468e+00
    endloop
  endfacet
  facet normal 3.009431e-01 5.839374e-17 -9.536421e-01
    outer loop
      vertex -1.095538e+01 -6.800000e+00 6.830200e+00
      vertex -1.135370e+01 2.599999e+00 6.704468e+00
      vertex -1.095538e+01 2.599999e+00 6.830200e+00
    endloop
  endfacet
  facet normal 5.375094e-01 5.163464e-17 -8.432577e-01
    outer loop
      vertex -1.170593e+01 2.599999e+00 6.479980e+00
      vertex -1.135370e+01 -6.800000e+00 6.704468e+00
      vertex -1.170593e+01 -6.800000e+00 6.479980e+00
    endloop
  endfacet
  facet normal 5.375094e-01 5.163464e-17 -8.432577e-01
    outer loop
      vertex -1.135370e+01 -6.800000e+00 6.704468e+00
      vertex -1.170593e+01 2.599999e+00 6.479980e+00
      vertex -1.135370e+01 2.599999e+00 6.704468e+00
    endloop
  endfacet
  facet normal 7.374454e-01 4.135673e-17 -6.754068e-01
    outer loop
      vertex -1.198804e+01 -6.800000e+00 6.171997e+00
      vertex -1.170593e+01 2.599999e+00 6.479980e+00
      vertex -1.170593e+01 -6.800000e+00 6.479980e+00
    endloop
  endfacet
  facet normal 7.374454e-01 4.135673e-17 -6.754068e-01
    outer loop
      vertex -1.170593e+01 2.599999e+00 6.479980e+00
      vertex -1.198804e+01 -6.800000e+00 6.171997e+00
      vertex -1.198804e+01 2.599999e+00 6.171997e+00
    endloop
  endfacet
  facet normal 8.871257e-01 2.826043e-17 -4.615279e-01
    outer loop
      vertex -1.218085e+01 -6.800000e+00 5.801392e+00
      vertex -1.198804e+01 2.599999e+00 6.171997e+00
      vertex -1.198804e+01 -6.800000e+00 6.171997e+00
    endloop
  endfacet
  facet normal 8.871257e-01 2.826043e-17 -4.615279e-01
    outer loop
      vertex -1.198804e+01 2.599999e+00 6.171997e+00
      vertex -1.218085e+01 -6.800000e+00 5.801392e+00
      vertex -1.218085e+01 2.599999e+00 5.801392e+00
    endloop
  endfacet
  facet normal 9.763498e-01 1.323823e-17 -2.161967e-01
    outer loop
      vertex -1.227112e+01 -6.800000e+00 5.393677e+00
      vertex -1.218085e+01 2.599999e+00 5.801392e+00
      vertex -1.218085e+01 -6.800000e+00 5.801392e+00
    endloop
  endfacet
  facet normal 9.763498e-01 1.323823e-17 -2.161967e-01
    outer loop
      vertex -1.218085e+01 2.599999e+00 5.801392e+00
      vertex -1.227112e+01 -6.800000e+00 5.393677e+00
      vertex -1.227112e+01 2.599999e+00 5.393677e+00
    endloop
  endfacet
  facet normal 9.990373e-01 -2.686137e-18 4.386795e-02
    outer loop
      vertex -1.225281e+01 -6.800000e+00 4.976318e+00
      vertex -1.227112e+01 2.599999e+00 5.393677e+00
      vertex -1.227112e+01 -6.800000e+00 5.393677e+00
    endloop
  endfacet
  facet normal 9.990373e-01 -2.686137e-18 4.386795e-02
    outer loop
      vertex -1.227112e+01 2.599999e+00 5.393677e+00
      vertex -1.225281e+01 -6.800000e+00 4.976318e+00
      vertex -1.225281e+01 2.599999e+00 4.976318e+00
    endloop
  endfacet
  facet normal 9.536421e-01 -1.842745e-17 3.009431e-01
    outer loop
      vertex -1.212708e+01 -6.800000e+00 4.578003e+00
      vertex -1.225281e+01 2.599999e+00 4.976318e+00
      vertex -1.225281e+01 -6.800000e+00 4.976318e+00
    endloop
  endfacet
  facet normal 9.536421e-01 -1.842745e-17 3.009431e-01
    outer loop
      vertex -1.225281e+01 2.599999e+00 4.976318e+00
      vertex -1.212708e+01 -6.800000e+00 4.578003e+00
      vertex -1.212708e+01 2.599999e+00 4.578003e+00
    endloop
  endfacet
  facet normal 8.432577e-01 -3.291296e-17 5.375094e-01
    outer loop
      vertex -1.190259e+01 -6.800000e+00 4.225830e+00
      vertex -1.212708e+01 2.599999e+00 4.578003e+00
      vertex -1.212708e+01 -6.800000e+00 4.578003e+00
    endloop
  endfacet
  facet normal 8.432577e-01 -3.291296e-17 5.375094e-01
    outer loop
      vertex -1.212708e+01 2.599999e+00 4.578003e+00
      vertex -1.190259e+01 -6.800000e+00 4.225830e+00
      vertex -1.190259e+01 2.599999e+00 4.225830e+00
    endloop
  endfacet
  facet normal 7.933533e-01 -6.087614e-01 -3.727589e-17
    outer loop
      vertex 8.858398e+00 7.077079e-01 0.000000e+00
      vertex 9.049072e+00 9.562359e-01 8.200073e+00
      vertex 8.858398e+00 7.077079e-01 8.200073e+00
    endloop
  endfacet
  facet normal 7.933533e-01 -6.087614e-01 -3.727589e-17
    outer loop
      vertex 9.049072e+00 9.562359e-01 8.200073e+00
      vertex 8.858398e+00 7.077079e-01 0.000000e+00
      vertex 9.049072e+00 9.562359e-01 0.000000e+00
    endloop
  endfacet
  facet normal -9.536421e-01 1.842745e-17 -3.009431e-01
    outer loop
      vertex -9.101563e+00 2.599999e+00 5.532837e+00
      vertex -9.227234e+00 -6.800000e+00 5.931152e+00
      vertex -9.227234e+00 2.599999e+00 5.931152e+00
    endloop
  endfacet
  facet normal -9.536421e-01 1.842745e-17 -3.009431e-01
    outer loop
      vertex -9.227234e+00 -6.800000e+00 5.931152e+00
      vertex -9.101563e+00 2.599999e+00 5.532837e+00
      vertex -9.101563e+00 -6.800000e+00 5.532837e+00
    endloop
  endfacet
  facet normal -8.432577e-01 3.291296e-17 -5.375094e-01
    outer loop
      vertex -9.227234e+00 2.599999e+00 5.931152e+00
      vertex -9.451782e+00 -6.800000e+00 6.283325e+00
      vertex -9.451782e+00 2.599999e+00 6.283325e+00
    endloop
  endfacet
  facet normal -8.432577e-01 3.291296e-17 -5.375094e-01
    outer loop
      vertex -9.451782e+00 -6.800000e+00 6.283325e+00
      vertex -9.227234e+00 2.599999e+00 5.931152e+00
      vertex -9.227234e+00 -6.800000e+00 5.931152e+00
    endloop
  endfacet
  facet normal 5.885850e-02 9.982663e-01 6.112619e-17
    outer loop
      vertex 1.006311e+01 -2.186332e+00 1.080005e+01
      vertex 9.463684e+00 -2.150992e+00 8.200073e+00
      vertex 9.463684e+00 -2.150992e+00 1.080005e+01
    endloop
  endfacet
  facet normal 5.885850e-02 9.982663e-01 6.112619e-17
    outer loop
      vertex 9.463684e+00 -2.150992e+00 8.200073e+00
      vertex 1.006311e+01 -2.186332e+00 1.080005e+01
      vertex 1.006311e+01 -2.186332e+00 8.200073e+00
    endloop
  endfacet
  facet normal -2.015174e-01 9.794849e-01 5.997615e-17
    outer loop
      vertex 1.065118e+01 -2.065337e+00 1.080005e+01
      vertex 1.006311e+01 -2.186332e+00 8.200073e+00
      vertex 1.006311e+01 -2.186332e+00 1.080005e+01
    endloop
  endfacet
  facet normal -2.015174e-01 9.794849e-01 5.997615e-17
    outer loop
      vertex 1.006311e+01 -2.186332e+00 8.200073e+00
      vertex 1.065118e+01 -2.065337e+00 1.080005e+01
      vertex 1.065118e+01 -2.065337e+00 8.200073e+00
    endloop
  endfacet
  facet normal -4.705881e-01 8.823530e-01 5.854389e-17
    outer loop
      vertex 5.858093e+00 6.800000e+00 1.080005e+01
      vertex 3.544617e+00 5.566134e+00 0.000000e+00
      vertex 3.544617e+00 5.566134e+00 1.080005e+01
    endloop
  endfacet
  facet normal -4.705881e-01 8.823530e-01 5.854389e-17
    outer loop
      vertex 3.544617e+00 5.566134e+00 0.000000e+00
      vertex 5.858093e+00 6.800000e+00 1.080005e+01
      vertex 5.858093e+00 6.800000e+00 0.000000e+00
    endloop
  endfacet
  facet normal 0.000000e+00 -6.123234e-17 1.000000e+00
    outer loop
      vertex 1.645801e+01 -6.800000e+00 1.080005e+01
      vertex 1.006311e+01 -2.186332e+00 1.080005e+01
      vertex -1.645801e+01 -6.800000e+00 1.080005e+01
    endloop
  endfacet
  facet normal 0.000000e+00 -6.123234e-17 1.000000e+00
    outer loop
      vertex 1.006311e+01 -2.186332e+00 1.080005e+01
      vertex 1.645801e+01 -6.800000e+00 1.080005e+01
      vertex 1.065118e+01 -2.065337e+00 1.080005e+01
    endloop
  endfacet
  facet normal 0.000000e+00 -6.123234e-17 1.000000e+00
    outer loop
      vertex 1.065118e+01 -2.065337e+00 1.080005e+01
      vertex 1.645801e+01 -6.800000e+00 1.080005e+01
      vertex 1.118793e+01 -1.796252e+00 1.080005e+01
    endloop
  endfacet
  facet normal 0.000000e+00 -6.123234e-17 1.000000e+00
    outer loop
      vertex 1.118793e+01 -1.796252e+00 1.080005e+01
      vertex 1.645801e+01 -6.800000e+00 1.080005e+01
      vertex 1.163678e+01 -1.397416e+00 1.080005e+01
    endloop
  endfacet
  facet normal 0.000000e+00 -6.123234e-17 1.000000e+00
    outer loop
      vertex 1.163678e+01 -1.397416e+00 1.080005e+01
      vertex 1.645801e+01 -6.800000e+00 1.080005e+01
      vertex 1.645801e+01 3.901170e+00 1.080005e+01
    endloop
  endfacet
  facet normal 0.000000e+00 -6.123234e-17 1.000000e+00
    outer loop
      vertex 1.163678e+01 -1.397416e+00 1.080005e+01
      vertex 1.645801e+01 3.901170e+00 1.080005e+01
      vertex 1.196704e+01 -8.960080e-01 1.080005e+01
    endloop
  endfacet
  facet normal 0.000000e+00 -6.123234e-17 1.000000e+00
    outer loop
      vertex 1.196704e+01 -8.960080e-01 1.080005e+01
      vertex 1.645801e+01 3.901170e+00 1.080005e+01
      vertex 1.215631e+01 -3.261981e-01 1.080005e+01
    endloop
  endfacet
  facet normal 0.000000e+00 -6.123234e-17 1.000000e+00
    outer loop
      vertex 1.215631e+01 -3.261981e-01 1.080005e+01
      vertex 1.645801e+01 3.901170e+00 1.080005e+01
      vertex 1.219165e+01 2.731814e-01 1.080005e+01
    endloop
  endfacet
  facet normal 0.000000e+00 -6.123234e-17 1.000000e+00
    outer loop
      vertex 1.219165e+01 2.731814e-01 1.080005e+01
      vertex 1.645801e+01 3.901170e+00 1.080005e+01
      vertex 1.207068e+01 8.612843e-01 1.080005e+01
    endloop
  endfacet
  facet normal 0.000000e+00 -6.123234e-17 1.000000e+00
    outer loop
      vertex 1.207068e+01 8.612843e-01 1.080005e+01
      vertex 1.645801e+01 3.901170e+00 1.080005e+01
      vertex 1.180157e+01 1.398032e+00 1.080005e+01
    endloop
  endfacet
  facet normal 0.000000e+00 -6.123234e-17 1.000000e+00
    outer loop
      vertex 1.180157e+01 1.398032e+00 1.080005e+01
      vertex 1.645801e+01 3.901170e+00 1.080005e+01
      vertex 1.140277e+01 1.846847e+00 1.080005e+01
    endloop
  endfacet
  facet normal 0.000000e+00 -6.123234e-17 1.000000e+00
    outer loop
      vertex 1.140277e+01 1.846847e+00 1.080005e+01
      vertex 1.645801e+01 3.901170e+00 1.080005e+01
      vertex 1.090131e+01 2.177141e+00 1.080005e+01
    endloop
  endfacet
  facet normal 0.000000e+00 -6.123234e-17 1.000000e+00
    outer loop
      vertex 1.090131e+01 2.177141e+00 1.080005e+01
      vertex 1.645801e+01 3.901170e+00 1.080005e+01
      vertex 1.033154e+01 2.366407e+00 1.080005e+01
    endloop
  endfacet
  facet normal 0.000000e+00 -6.123234e-17 1.000000e+00
    outer loop
      vertex 1.033154e+01 2.366407e+00 1.080005e+01
      vertex 1.645801e+01 3.901170e+00 1.080005e+01
      vertex 9.732117e+00 2.401748e+00 1.080005e+01
    endloop
  endfacet
  facet normal 0.000000e+00 -6.123234e-17 1.000000e+00
    outer loop
      vertex 9.732117e+00 2.401748e+00 1.080005e+01
      vertex 1.645801e+01 3.901170e+00 1.080005e+01
      vertex 3.544617e+00 2.599999e+00 1.080005e+01
    endloop
  endfacet
  facet normal 0.000000e+00 -6.123234e-17 1.000000e+00
    outer loop
      vertex 3.544617e+00 2.599999e+00 1.080005e+01
      vertex 1.645801e+01 3.901170e+00 1.080005e+01
      vertex 3.544617e+00 5.566134e+00 1.080005e+01
    endloop
  endfacet
  facet normal 0.000000e+00 -6.123234e-17 1.000000e+00
    outer loop
      vertex 3.544617e+00 5.566134e+00 1.080005e+01
      vertex 1.645801e+01 3.901170e+00 1.080005e+01
      vertex 1.355914e+01 6.800000e+00 1.080005e+01
    endloop
  endfacet
  facet normal 0.000000e+00 -6.123234e-17 1.000000e+00
    outer loop
      vertex 3.544617e+00 5.566134e+00 1.080005e+01
      vertex 1.355914e+01 6.800000e+00 1.080005e+01
      vertex 5.858093e+00 6.800000e+00 1.080005e+01
    endloop
  endfacet
  facet normal 0.000000e+00 -6.123234e-17 1.000000e+00
    outer loop
      vertex -1.645801e+01 -6.800000e+00 1.080005e+01
      vertex 9.463684e+00 -2.150992e+00 1.080005e+01
      vertex -1.645801e+01 2.599999e+00 1.080005e+01
    endloop
  endfacet
  facet normal 0.000000e+00 -6.123234e-17 1.000000e+00
    outer loop
      vertex 9.463684e+00 -2.150992e+00 1.080005e+01
      vertex -1.645801e+01 -6.800000e+00 1.080005e+01
      vertex 1.006311e+01 -2.186332e+00 1.080005e+01
    endloop
  endfacet
  facet normal 0.000000e+00 -6.123234e-17 1.000000e+00
    outer loop
      vertex -1.645801e+01 2.599999e+00 1.080005e+01
      vertex 9.463684e+00 -2.150992e+00 1.080005e+01
      vertex 8.893921e+00 -1.961726e+00 1.080005e+01
    endloop
  endfacet
  facet normal 0.000000e+00 -6.123234e-17 1.000000e+00
    outer loop
      vertex -1.645801e+01 2.599999e+00 1.080005e+01
      vertex 8.893921e+00 -1.961726e+00 1.080005e+01
      vertex 8.392517e+00 -1.631431e+00 1.080005e+01
    endloop
  endfacet
  facet normal 0.000000e+00 -6.123234e-17 1.000000e+00
    outer loop
      vertex -1.645801e+01 2.599999e+00 1.080005e+01
      vertex 8.392517e+00 -1.631431e+00 1.080005e+01
      vertex 7.993652e+00 -1.182616e+00 1.080005e+01
    endloop
  endfacet
  facet normal 0.000000e+00 -6.123234e-17 1.000000e+00
    outer loop
      vertex -1.645801e+01 2.599999e+00 1.080005e+01
      vertex 7.993652e+00 -1.182616e+00 1.080005e+01
      vertex 7.724548e+00 -6.458683e-01 1.080005e+01
    endloop
  endfacet
  facet normal 0.000000e+00 -6.123234e-17 1.000000e+00
    outer loop
      vertex -1.645801e+01 2.599999e+00 1.080005e+01
      vertex 7.724548e+00 -6.458683e-01 1.080005e+01
      vertex 7.603577e+00 -5.776548e-02 1.080005e+01
    endloop
  endfacet
  facet normal 0.000000e+00 -6.123234e-17 1.000000e+00
    outer loop
      vertex -1.645801e+01 2.599999e+00 1.080005e+01
      vertex 7.603577e+00 -5.776548e-02 1.080005e+01
      vertex 7.638916e+00 5.416141e-01 1.080005e+01
    endloop
  endfacet
  facet normal 0.000000e+00 -6.123234e-17 1.000000e+00
    outer loop
      vertex -1.645801e+01 2.599999e+00 1.080005e+01
      vertex 7.638916e+00 5.416141e-01 1.080005e+01
      vertex 7.828186e+00 1.111423e+00 1.080005e+01
    endloop
  endfacet
  facet normal 0.000000e+00 -6.123234e-17 1.000000e+00
    outer loop
      vertex -1.645801e+01 2.599999e+00 1.080005e+01
      vertex 7.828186e+00 1.111423e+00 1.080005e+01
      vertex 8.158508e+00 1.612832e+00 1.080005e+01
    endloop
  endfacet
  facet normal 0.000000e+00 -6.123234e-17 1.000000e+00
    outer loop
      vertex -1.645801e+01 2.599999e+00 1.080005e+01
      vertex 8.158508e+00 1.612832e+00 1.080005e+01
      vertex 8.607300e+00 2.011668e+00 1.080005e+01
    endloop
  endfacet
  facet normal 0.000000e+00 -6.123234e-17 1.000000e+00
    outer loop
      vertex -1.645801e+01 2.599999e+00 1.080005e+01
      vertex 8.607300e+00 2.011668e+00 1.080005e+01
      vertex 9.144043e+00 2.280752e+00 1.080005e+01
    endloop
  endfacet
  facet normal 0.000000e+00 -6.123234e-17 1.000000e+00
    outer loop
      vertex -1.645801e+01 2.599999e+00 1.080005e+01
      vertex 9.144043e+00 2.280752e+00 1.080005e+01
      vertex 9.732117e+00 2.401748e+00 1.080005e+01
    endloop
  endfacet
  facet normal 0.000000e+00 -6.123234e-17 1.000000e+00
    outer loop
      vertex -1.645801e+01 2.599999e+00 1.080005e+01
      vertex 9.732117e+00 2.401748e+00 1.080005e+01
      vertex 3.544617e+00 2.599999e+00 1.080005e+01
    endloop
  endfacet
  facet normal -4.481602e-01 8.939533e-01 5.473885e-17
    outer loop
      vertex 1.118793e+01 -1.796252e+00 1.080005e+01
      vertex 1.065118e+01 -2.065337e+00 8.200073e+00
      vertex 1.065118e+01 -2.065337e+00 1.080005e+01
    endloop
  endfacet
  facet normal -4.481602e-01 8.939533e-01 5.473885e-17
    outer loop
      vertex 1.065118e+01 -2.065337e+00 8.200073e+00
      vertex 1.118793e+01 -1.796252e+00 1.080005e+01
      vertex 1.118793e+01 -1.796252e+00 8.200073e+00
    endloop
  endfacet
  facet normal -6.642616e-01 7.475001e-01 4.577118e-17
    outer loop
      vertex 1.163678e+01 -1.397416e+00 1.080005e+01
      vertex 1.118793e+01 -1.796252e+00 8.200073e+00
      vertex 1.118793e+01 -1.796252e+00 1.080005e+01
    endloop
  endfacet
  facet normal -6.642616e-01 7.475001e-01 4.577118e-17
    outer loop
      vertex 1.118793e+01 -1.796252e+00 8.200073e+00
      vertex 1.163678e+01 -1.397416e+00 1.080005e+01
      vertex 1.163678e+01 -1.397416e+00 8.200073e+00
    endloop
  endfacet
  facet normal -8.350947e-01 5.501061e-01 3.368428e-17
    outer loop
      vertex 1.196704e+01 -8.960080e-01 8.200073e+00
      vertex 1.163678e+01 -1.397416e+00 1.080005e+01
      vertex 1.196704e+01 -8.960080e-01 1.080005e+01
    endloop
  endfacet
  facet normal -8.350947e-01 5.501061e-01 3.368428e-17
    outer loop
      vertex 1.163678e+01 -1.397416e+00 1.080005e+01
      vertex 1.196704e+01 -8.960080e-01 8.200073e+00
      vertex 1.163678e+01 -1.397416e+00 8.200073e+00
    endloop
  endfacet
  facet normal -9.490175e-01 3.152233e-01 1.930186e-17
    outer loop
      vertex 1.215631e+01 -3.261981e-01 8.200073e+00
      vertex 1.196704e+01 -8.960080e-01 1.080005e+01
      vertex 1.215631e+01 -3.261981e-01 1.080005e+01
    endloop
  endfacet
  facet normal -9.490175e-01 3.152233e-01 1.930186e-17
    outer loop
      vertex 1.196704e+01 -8.960080e-01 1.080005e+01
      vertex 1.215631e+01 -3.261981e-01 8.200073e+00
      vertex 1.196704e+01 -8.960080e-01 8.200073e+00
    endloop
  endfacet
  facet normal -9.982663e-01 5.885850e-02 3.604044e-18
    outer loop
      vertex 1.219165e+01 2.731814e-01 8.200073e+00
      vertex 1.215631e+01 -3.261981e-01 1.080005e+01
      vertex 1.219165e+01 2.731814e-01 1.080005e+01
    endloop
  endfacet
  facet normal -9.982663e-01 5.885850e-02 3.604044e-18
    outer loop
      vertex 1.215631e+01 -3.261981e-01 1.080005e+01
      vertex 1.219165e+01 2.731814e-01 8.200073e+00
      vertex 1.215631e+01 -3.261981e-01 8.200073e+00
    endloop
  endfacet
  facet normal 7.071068e-01 7.071068e-01 4.329780e-17
    outer loop
      vertex 1.645801e+01 3.901170e+00 0.000000e+00
      vertex 1.355914e+01 6.800000e+00 1.080005e+01
      vertex 1.645801e+01 3.901170e+00 1.080005e+01
    endloop
  endfacet
  facet normal 7.071068e-01 7.071068e-01 4.329780e-17
    outer loop
      vertex 1.355914e+01 6.800000e+00 1.080005e+01
      vertex 1.645801e+01 3.901170e+00 0.000000e+00
      vertex 1.355914e+01 6.800000e+00 0.000000e+00
    endloop
  endfacet
  facet normal 0.000000e+00 -6.123234e-17 1.000000e+00
    outer loop
      vertex 1.065118e+01 -2.065337e+00 8.200073e+00
      vertex 9.463684e+00 -2.150992e+00 8.200073e+00
      vertex 1.006311e+01 -2.186332e+00 8.200073e+00
    endloop
  endfacet
  facet normal 0.000000e+00 -6.123234e-17 1.000000e+00
    outer loop
      vertex 9.463684e+00 -2.150992e+00 8.200073e+00
      vertex 1.065118e+01 -2.065337e+00 8.200073e+00
      vertex 8.893921e+00 -1.961726e+00 8.200073e+00
    endloop
  endfacet
  facet normal 0.000000e+00 -6.123234e-17 1.000000e+00
    outer loop
      vertex 8.893921e+00 -1.961726e+00 8.200073e+00
      vertex 1.065118e+01 -2.065337e+00 8.200073e+00
      vertex 1.118793e+01 -1.796252e+00 8.200073e+00
    endloop
  endfacet
  facet normal 0.000000e+00 -6.123234e-17 1.000000e+00
    outer loop
      vertex 8.893921e+00 -1.961726e+00 8.200073e+00
      vertex 1.118793e+01 -1.796252e+00 8.200073e+00
      vertex 8.392517e+00 -1.631431e+00 8.200073e+00
    endloop
  endfacet
  facet normal 0.000000e+00 -6.123234e-17 1.000000e+00
    outer loop
      vertex 8.392517e+00 -1.631431e+00 8.200073e+00
      vertex 1.118793e+01 -1.796252e+00 8.200073e+00
      vertex 1.163678e+01 -1.397416e+00 8.200073e+00
    endloop
  endfacet
  facet normal 0.000000e+00 -6.123234e-17 1.000000e+00
    outer loop
      vertex 8.392517e+00 -1.631431e+00 8.200073e+00
      vertex 1.163678e+01 -1.397416e+00 8.200073e+00
      vertex 7.993652e+00 -1.182616e+00 8.200073e+00
    endloop
  endfacet
  facet normal 0.000000e+00 -6.123234e-17 1.000000e+00
    outer loop
      vertex 7.993652e+00 -1.182616e+00 8.200073e+00
      vertex 1.163678e+01 -1.397416e+00 8.200073e+00
      vertex 9.897644e+00 -1.092292e+00 8.200073e+00
    endloop
  endfacet
  facet normal 0.000000e+00 -6.123234e-17 1.000000e+00
    outer loop
      vertex 9.897644e+00 -1.092292e+00 8.200073e+00
      vertex 1.163678e+01 -1.397416e+00 8.200073e+00
      vertex 1.196704e+01 -8.960080e-01 8.200073e+00
    endloop
  endfacet
  facet normal 0.000000e+00 -6.123234e-17 1.000000e+00
    outer loop
      vertex 9.897644e+00 -1.092292e+00 8.200073e+00
      vertex 1.196704e+01 -8.960080e-01 8.200073e+00
      vertex 1.020819e+01 -1.051403e+00 8.200073e+00
    endloop
  endfacet
  facet normal 0.000000e+00 -6.123234e-17 1.000000e+00
    outer loop
      vertex 1.020819e+01 -1.051403e+00 8.200073e+00
      vertex 1.196704e+01 -8.960080e-01 8.200073e+00
      vertex 1.049762e+01 -9.315224e-01 8.200073e+00
    endloop
  endfacet
  facet normal 0.000000e+00 -6.123234e-17 1.000000e+00
    outer loop
      vertex 1.049762e+01 -9.315224e-01 8.200073e+00
      vertex 1.196704e+01 -8.960080e-01 8.200073e+00
      vertex 1.074615e+01 -7.408204e-01 8.200073e+00
    endloop
  endfacet
  facet normal 0.000000e+00 -6.123234e-17 1.000000e+00
    outer loop
      vertex 1.074615e+01 -7.408204e-01 8.200073e+00
      vertex 1.196704e+01 -8.960080e-01 8.200073e+00
      vertex 1.215631e+01 -3.261981e-01 8.200073e+00
    endloop
  endfacet
  facet normal 0.000000e+00 -6.123234e-17 1.000000e+00
    outer loop
      vertex 1.074615e+01 -7.408204e-01 8.200073e+00
      vertex 1.215631e+01 -3.261981e-01 8.200073e+00
      vertex 1.093683e+01 -4.922919e-01 8.200073e+00
    endloop
  endfacet
  facet normal 0.000000e+00 -6.123234e-17 1.000000e+00
    outer loop
      vertex 1.093683e+01 -4.922919e-01 8.200073e+00
      vertex 1.215631e+01 -3.261981e-01 8.200073e+00
      vertex 1.105670e+01 -2.028751e-01 8.200073e+00
    endloop
  endfacet
  facet normal 0.000000e+00 -6.123234e-17 1.000000e+00
    outer loop
      vertex 1.105670e+01 -2.028751e-01 8.200073e+00
      vertex 1.215631e+01 -3.261981e-01 8.200073e+00
      vertex 1.219165e+01 2.731814e-01 8.200073e+00
    endloop
  endfacet
  facet normal 0.000000e+00 -6.123234e-17 1.000000e+00
    outer loop
      vertex 1.105670e+01 -2.028751e-01 8.200073e+00
      vertex 1.219165e+01 2.731814e-01 8.200073e+00
      vertex 1.109760e+01 1.077080e-01 8.200073e+00
    endloop
  endfacet
  facet normal 0.000000e+00 -6.123234e-17 1.000000e+00
    outer loop
      vertex 1.109760e+01 1.077080e-01 8.200073e+00
      vertex 1.219165e+01 2.731814e-01 8.200073e+00
      vertex 1.105670e+01 4.182906e-01 8.200073e+00
    endloop
  endfacet
  facet normal 0.000000e+00 -6.123234e-17 1.000000e+00
    outer loop
      vertex 1.105670e+01 4.182906e-01 8.200073e+00
      vertex 1.219165e+01 2.731814e-01 8.200073e+00
      vertex 1.207068e+01 8.612843e-01 8.200073e+00
    endloop
  endfacet
  facet normal 0.000000e+00 -6.123234e-17 1.000000e+00
    outer loop
      vertex 1.105670e+01 4.182906e-01 8.200073e+00
      vertex 1.207068e+01 8.612843e-01 8.200073e+00
      vertex 1.093683e+01 7.077079e-01 8.200073e+00
    endloop
  endfacet
  facet normal 0.000000e+00 -6.123234e-17 1.000000e+00
    outer loop
      vertex 1.093683e+01 7.077079e-01 8.200073e+00
      vertex 1.207068e+01 8.612843e-01 8.200073e+00
      vertex 1.074615e+01 9.562359e-01 8.200073e+00
    endloop
  endfacet
  facet normal 0.000000e+00 -6.123234e-17 1.000000e+00
    outer loop
      vertex 1.074615e+01 9.562359e-01 8.200073e+00
      vertex 1.207068e+01 8.612843e-01 8.200073e+00
      vertex 1.180157e+01 1.398032e+00 8.200073e+00
    endloop
  endfacet
  facet normal 0.000000e+00 -6.123234e-17 1.000000e+00
    outer loop
      vertex 1.074615e+01 9.562359e-01 8.200073e+00
      vertex 1.180157e+01 1.398032e+00 8.200073e+00
      vertex 1.049762e+01 1.146938e+00 8.200073e+00
    endloop
  endfacet
  facet normal 0.000000e+00 -6.123234e-17 1.000000e+00
    outer loop
      vertex 1.049762e+01 1.146938e+00 8.200073e+00
      vertex 1.180157e+01 1.398032e+00 8.200073e+00
      vertex 1.020819e+01 1.266819e+00 8.200073e+00
    endloop
  endfacet
  facet normal 0.000000e+00 -6.123234e-17 1.000000e+00
    outer loop
      vertex 1.020819e+01 1.266819e+00 8.200073e+00
      vertex 1.180157e+01 1.398032e+00 8.200073e+00
      vertex 9.897644e+00 1.307708e+00 8.200073e+00
    endloop
  endfacet
  facet normal 0.000000e+00 -6.123234e-17 1.000000e+00
    outer loop
      vertex 7.993652e+00 -1.182616e+00 8.200073e+00
      vertex 9.587036e+00 -1.051403e+00 8.200073e+00
      vertex 7.724548e+00 -6.458683e-01 8.200073e+00
    endloop
  endfacet
  facet normal 0.000000e+00 -6.123234e-17 1.000000e+00
    outer loop
      vertex 9.587036e+00 -1.051403e+00 8.200073e+00
      vertex 7.993652e+00 -1.182616e+00 8.200073e+00
      vertex 9.897644e+00 -1.092292e+00 8.200073e+00
    endloop
  endfacet
  facet normal 0.000000e+00 -6.123234e-17 1.000000e+00
    outer loop
      vertex 7.724548e+00 -6.458683e-01 8.200073e+00
      vertex 9.587036e+00 -1.051403e+00 8.200073e+00
      vertex 9.297607e+00 -9.315224e-01 8.200073e+00
    endloop
  endfacet
  facet normal 0.000000e+00 -6.123234e-17 1.000000e+00
    outer loop
      vertex 7.724548e+00 -6.458683e-01 8.200073e+00
      vertex 9.297607e+00 -9.315224e-01 8.200073e+00
      vertex 9.049072e+00 -7.408204e-01 8.200073e+00
    endloop
  endfacet
  facet normal 0.000000e+00 -6.123234e-17 1.000000e+00
    outer loop
      vertex 7.724548e+00 -6.458683e-01 8.200073e+00
      vertex 9.049072e+00 -7.408204e-01 8.200073e+00
      vertex 8.858398e+00 -4.922919e-01 8.200073e+00
    endloop
  endfacet
  facet normal 0.000000e+00 -6.123234e-17 1.000000e+00
    outer loop
      vertex 7.724548e+00 -6.458683e-01 8.200073e+00
      vertex 8.858398e+00 -4.922919e-01 8.200073e+00
      vertex 7.603577e+00 -5.776548e-02 8.200073e+00
    endloop
  endfacet
  facet normal 0.000000e+00 -6.123234e-17 1.000000e+00
    outer loop
      vertex 7.603577e+00 -5.776548e-02 8.200073e+00
      vertex 8.858398e+00 -4.922919e-01 8.200073e+00
      vertex 8.738525e+00 -2.028751e-01 8.200073e+00
    endloop
  endfacet
  facet normal 0.000000e+00 -6.123234e-17 1.000000e+00
    outer loop
      vertex 7.603577e+00 -5.776548e-02 8.200073e+00
      vertex 8.738525e+00 -2.028751e-01 8.200073e+00
      vertex 8.697632e+00 1.077080e-01 8.200073e+00
    endloop
  endfacet
  facet normal 0.000000e+00 -6.123234e-17 1.000000e+00
    outer loop
      vertex 7.603577e+00 -5.776548e-02 8.200073e+00
      vertex 8.697632e+00 1.077080e-01 8.200073e+00
      vertex 7.638916e+00 5.416141e-01 8.200073e+00
    endloop
  endfacet
  facet normal 0.000000e+00 -6.123234e-17 1.000000e+00
    outer loop
      vertex 7.638916e+00 5.416141e-01 8.200073e+00
      vertex 8.697632e+00 1.077080e-01 8.200073e+00
      vertex 8.738525e+00 4.182906e-01 8.200073e+00
    endloop
  endfacet
  facet normal 0.000000e+00 -6.123234e-17 1.000000e+00
    outer loop
      vertex 7.638916e+00 5.416141e-01 8.200073e+00
      vertex 8.738525e+00 4.182906e-01 8.200073e+00
      vertex 8.858398e+00 7.077079e-01 8.200073e+00
    endloop
  endfacet
  facet normal 0.000000e+00 -6.123234e-17 1.000000e+00
    outer loop
      vertex 7.638916e+00 5.416141e-01 8.200073e+00
      vertex 8.858398e+00 7.077079e-01 8.200073e+00
      vertex 7.828186e+00 1.111423e+00 8.200073e+00
    endloop
  endfacet
  facet normal 0.000000e+00 -6.123234e-17 1.000000e+00
    outer loop
      vertex 7.828186e+00 1.111423e+00 8.200073e+00
      vertex 8.858398e+00 7.077079e-01 8.200073e+00
      vertex 9.049072e+00 9.562359e-01 8.200073e+00
    endloop
  endfacet
  facet normal 0.000000e+00 -6.123234e-17 1.000000e+00
    outer loop
      vertex 7.828186e+00 1.111423e+00 8.200073e+00
      vertex 9.049072e+00 9.562359e-01 8.200073e+00
      vertex 9.297607e+00 1.146938e+00 8.200073e+00
    endloop
  endfacet
  facet normal 0.000000e+00 -6.123234e-17 1.000000e+00
    outer loop
      vertex 7.828186e+00 1.111423e+00 8.200073e+00
      vertex 9.297607e+00 1.146938e+00 8.200073e+00
      vertex 8.158508e+00 1.612832e+00 8.200073e+00
    endloop
  endfacet
  facet normal 0.000000e+00 -6.123234e-17 1.000000e+00
    outer loop
      vertex 8.158508e+00 1.612832e+00 8.200073e+00
      vertex 9.297607e+00 1.146938e+00 8.200073e+00
      vertex 9.587036e+00 1.266819e+00 8.200073e+00
    endloop
  endfacet
  facet normal 0.000000e+00 -6.123234e-17 1.000000e+00
    outer loop
      vertex 8.158508e+00 1.612832e+00 8.200073e+00
      vertex 9.587036e+00 1.266819e+00 8.200073e+00
      vertex 9.897644e+00 1.307708e+00 8.200073e+00
    endloop
  endfacet
  facet normal 0.000000e+00 -6.123234e-17 1.000000e+00
    outer loop
      vertex 8.158508e+00 1.612832e+00 8.200073e+00
      vertex 9.897644e+00 1.307708e+00 8.200073e+00
      vertex 1.180157e+01 1.398032e+00 8.200073e+00
    endloop
  endfacet
  facet normal 0.000000e+00 -6.123234e-17 1.000000e+00
    outer loop
      vertex 8.158508e+00 1.612832e+00 8.200073e+00
      vertex 1.180157e+01 1.398032e+00 8.200073e+00
      vertex 1.140277e+01 1.846847e+00 8.200073e+00
    endloop
  endfacet
  facet normal 0.000000e+00 -6.123234e-17 1.000000e+00
    outer loop
      vertex 8.158508e+00 1.612832e+00 8.200073e+00
      vertex 1.140277e+01 1.846847e+00 8.200073e+00
      vertex 8.607300e+00 2.011668e+00 8.200073e+00
    endloop
  endfacet
  facet normal 0.000000e+00 -6.123234e-17 1.000000e+00
    outer loop
      vertex 8.607300e+00 2.011668e+00 8.200073e+00
      vertex 1.140277e+01 1.846847e+00 8.200073e+00
      vertex 1.090131e+01 2.177141e+00 8.200073e+00
    endloop
  endfacet
  facet normal 0.000000e+00 -6.123234e-17 1.000000e+00
    outer loop
      vertex 8.607300e+00 2.011668e+00 8.200073e+00
      vertex 1.090131e+01 2.177141e+00 8.200073e+00
      vertex 9.144043e+00 2.280752e+00 8.200073e+00
    endloop
  endfacet
  facet normal 0.000000e+00 -6.123234e-17 1.000000e+00
    outer loop
      vertex 9.144043e+00 2.280752e+00 8.200073e+00
      vertex 1.090131e+01 2.177141e+00 8.200073e+00
      vertex 1.033154e+01 2.366407e+00 8.200073e+00
    endloop
  endfacet
  facet normal 0.000000e+00 -6.123234e-17 1.000000e+00
    outer loop
      vertex 9.144043e+00 2.280752e+00 8.200073e+00
      vertex 1.033154e+01 2.366407e+00 8.200073e+00
      vertex 9.732117e+00 2.401748e+00 8.200073e+00
    endloop
  endfacet
  facet normal -9.794849e-01 -2.015174e-01 -1.233938e-17
    outer loop
      vertex 1.207068e+01 8.612843e-01 8.200073e+00
      vertex 1.219165e+01 2.731814e-01 1.080005e+01
      vertex 1.207068e+01 8.612843e-01 1.080005e+01
    endloop
  endfacet
  facet normal -9.794849e-01 -2.015174e-01 -1.233938e-17
    outer loop
      vertex 1.219165e+01 2.731814e-01 1.080005e+01
      vertex 1.207068e+01 8.612843e-01 8.200073e+00
      vertex 1.219165e+01 2.731814e-01 8.200073e+00
    endloop
  endfacet
  facet normal -8.939533e-01 -4.481602e-01 -2.744190e-17
    outer loop
      vertex 1.180157e+01 1.398032e+00 8.200073e+00
      vertex 1.207068e+01 8.612843e-01 1.080005e+01
      vertex 1.180157e+01 1.398032e+00 1.080005e+01
    endloop
  endfacet
  facet normal -8.939533e-01 -4.481602e-01 -2.744190e-17
    outer loop
      vertex 1.207068e+01 8.612843e-01 1.080005e+01
      vertex 1.180157e+01 1.398032e+00 8.200073e+00
      vertex 1.207068e+01 8.612843e-01 8.200073e+00
    endloop
  endfacet
  facet normal -7.475001e-01 -6.642616e-01 -4.067429e-17
    outer loop
      vertex 1.140277e+01 1.846847e+00 8.200073e+00
      vertex 1.180157e+01 1.398032e+00 1.080005e+01
      vertex 1.140277e+01 1.846847e+00 1.080005e+01
    endloop
  endfacet
  facet normal -7.475001e-01 -6.642616e-01 -4.067429e-17
    outer loop
      vertex 1.180157e+01 1.398032e+00 1.080005e+01
      vertex 1.140277e+01 1.846847e+00 8.200073e+00
      vertex 1.180157e+01 1.398032e+00 8.200073e+00
    endloop
  endfacet
  facet normal -5.501061e-01 -8.350947e-01 -5.113481e-17
    outer loop
      vertex 1.140277e+01 1.846847e+00 8.200073e+00
      vertex 1.090131e+01 2.177141e+00 1.080005e+01
      vertex 1.090131e+01 2.177141e+00 8.200073e+00
    endloop
  endfacet
  facet normal -5.501061e-01 -8.350947e-01 -5.113481e-17
    outer loop
      vertex 1.090131e+01 2.177141e+00 1.080005e+01
      vertex 1.140277e+01 1.846847e+00 8.200073e+00
      vertex 1.140277e+01 1.846847e+00 1.080005e+01
    endloop
  endfacet
  facet normal -3.152233e-01 -9.490175e-01 -5.811056e-17
    outer loop
      vertex 1.090131e+01 2.177141e+00 8.200073e+00
      vertex 1.033154e+01 2.366407e+00 1.080005e+01
      vertex 1.033154e+01 2.366407e+00 8.200073e+00
    endloop
  endfacet
  facet normal -3.152233e-01 -9.490175e-01 -5.811056e-17
    outer loop
      vertex 1.033154e+01 2.366407e+00 1.080005e+01
      vertex 1.090131e+01 2.177141e+00 8.200073e+00
      vertex 1.090131e+01 2.177141e+00 1.080005e+01
    endloop
  endfacet
  facet normal -5.885850e-02 -9.982663e-01 -6.112619e-17
    outer loop
      vertex 1.033154e+01 2.366407e+00 8.200073e+00
      vertex 9.732117e+00 2.401748e+00 1.080005e+01
      vertex 9.732117e+00 2.401748e+00 8.200073e+00
    endloop
  endfacet
  facet normal -5.885850e-02 -9.982663e-01 -6.112619e-17
    outer loop
      vertex 9.732117e+00 2.401748e+00 1.080005e+01
      vertex 1.033154e+01 2.366407e+00 8.200073e+00
      vertex 1.033154e+01 2.366407e+00 1.080005e+01
    endloop
  endfacet
  facet normal 2.015174e-01 -9.794849e-01 -5.997615e-17
    outer loop
      vertex 9.732117e+00 2.401748e+00 8.200073e+00
      vertex 9.144043e+00 2.280752e+00 1.080005e+01
      vertex 9.144043e+00 2.280752e+00 8.200073e+00
    endloop
  endfacet
  facet normal 2.015174e-01 -9.794849e-01 -5.997615e-17
    outer loop
      vertex 9.144043e+00 2.280752e+00 1.080005e+01
      vertex 9.732117e+00 2.401748e+00 8.200073e+00
      vertex 9.732117e+00 2.401748e+00 1.080005e+01
    endloop
  endfacet
  facet normal 4.481602e-01 -8.939533e-01 -5.473885e-17
    outer loop
      vertex 9.144043e+00 2.280752e+00 8.200073e+00
      vertex 8.607300e+00 2.011668e+00 1.080005e+01
      vertex 8.607300e+00 2.011668e+00 8.200073e+00
    endloop
  endfacet
  facet normal 4.481602e-01 -8.939533e-01 -5.473885e-17
    outer loop
      vertex 8.607300e+00 2.011668e+00 1.080005e+01
      vertex 9.144043e+00 2.280752e+00 8.200073e+00
      vertex 9.144043e+00 2.280752e+00 1.080005e+01
    endloop
  endfacet
  facet normal 6.642616e-01 -7.475001e-01 -4.577118e-17
    outer loop
      vertex 8.607300e+00 2.011668e+00 8.200073e+00
      vertex 8.158508e+00 1.612832e+00 1.080005e+01
      vertex 8.158508e+00 1.612832e+00 8.200073e+00
    endloop
  endfacet
  facet normal 6.642616e-01 -7.475001e-01 -4.577118e-17
    outer loop
      vertex 8.158508e+00 1.612832e+00 1.080005e+01
      vertex 8.607300e+00 2.011668e+00 8.200073e+00
      vertex 8.607300e+00 2.011668e+00 1.080005e+01
    endloop
  endfacet
  facet normal 8.350947e-01 -5.501061e-01 -3.368428e-17
    outer loop
      vertex 7.828186e+00 1.111423e+00 8.200073e+00
      vertex 8.158508e+00 1.612832e+00 1.080005e+01
      vertex 7.828186e+00 1.111423e+00 1.080005e+01
    endloop
  endfacet
  facet normal 8.350947e-01 -5.501061e-01 -3.368428e-17
    outer loop
      vertex 8.158508e+00 1.612832e+00 1.080005e+01
      vertex 7.828186e+00 1.111423e+00 8.200073e+00
      vertex 8.158508e+00 1.612832e+00 8.200073e+00
    endloop
  endfacet
  facet normal 9.490175e-01 -3.152233e-01 -1.930186e-17
    outer loop
      vertex 7.638916e+00 5.416141e-01 8.200073e+00
      vertex 7.828186e+00 1.111423e+00 1.080005e+01
      vertex 7.638916e+00 5.416141e-01 1.080005e+01
    endloop
  endfacet
  facet normal 9.490175e-01 -3.152233e-01 -1.930186e-17
    outer loop
      vertex 7.828186e+00 1.111423e+00 1.080005e+01
      vertex 7.638916e+00 5.416141e-01 8.200073e+00
      vertex 7.828186e+00 1.111423e+00 8.200073e+00
    endloop
  endfacet
  facet normal 9.982663e-01 -5.885850e-02 -3.604044e-18
    outer loop
      vertex 7.603577e+00 -5.776548e-02 8.200073e+00
      vertex 7.638916e+00 5.416141e-01 1.080005e+01
      vertex 7.603577e+00 -5.776548e-02 1.080005e+01
    endloop
  endfacet
  facet normal 9.982663e-01 -5.885850e-02 -3.604044e-18
    outer loop
      vertex 7.638916e+00 5.416141e-01 1.080005e+01
      vertex 7.603577e+00 -5.776548e-02 8.200073e+00
      vertex 7.638916e+00 5.416141e-01 8.200073e+00
    endloop
  endfacet
  facet normal 9.794849e-01 2.015174e-01 1.233938e-17
    outer loop
      vertex 7.724548e+00 -6.458683e-01 8.200073e+00
      vertex 7.603577e+00 -5.776548e-02 1.080005e+01
      vertex 7.724548e+00 -6.458683e-01 1.080005e+01
    endloop
  endfacet
  facet normal 9.794849e-01 2.015174e-01 1.233938e-17
    outer loop
      vertex 7.603577e+00 -5.776548e-02 1.080005e+01
      vertex 7.724548e+00 -6.458683e-01 8.200073e+00
      vertex 7.603577e+00 -5.776548e-02 8.200073e+00
    endloop
  endfacet
  facet normal 8.939533e-01 4.481602e-01 2.744190e-17
    outer loop
      vertex 7.993652e+00 -1.182616e+00 8.200073e+00
      vertex 7.724548e+00 -6.458683e-01 1.080005e+01
      vertex 7.993652e+00 -1.182616e+00 1.080005e+01
    endloop
  endfacet
  facet normal 8.939533e-01 4.481602e-01 2.744190e-17
    outer loop
      vertex 7.724548e+00 -6.458683e-01 1.080005e+01
      vertex 7.993652e+00 -1.182616e+00 8.200073e+00
      vertex 7.724548e+00 -6.458683e-01 8.200073e+00
    endloop
  endfacet
  facet normal 7.475001e-01 6.642616e-01 4.067429e-17
    outer loop
      vertex 8.392517e+00 -1.631431e+00 8.200073e+00
      vertex 7.993652e+00 -1.182616e+00 1.080005e+01
      vertex 8.392517e+00 -1.631431e+00 1.080005e+01
    endloop
  endfacet
  facet normal 7.475001e-01 6.642616e-01 4.067429e-17
    outer loop
      vertex 7.993652e+00 -1.182616e+00 1.080005e+01
      vertex 8.392517e+00 -1.631431e+00 8.200073e+00
      vertex 7.993652e+00 -1.182616e+00 8.200073e+00
    endloop
  endfacet
  facet normal 5.501061e-01 8.350947e-01 5.113481e-17
    outer loop
      vertex 8.893921e+00 -1.961726e+00 1.080005e+01
      vertex 8.392517e+00 -1.631431e+00 8.200073e+00
      vertex 8.392517e+00 -1.631431e+00 1.080005e+01
    endloop
  endfacet
  facet normal 5.501061e-01 8.350947e-01 5.113481e-17
    outer loop
      vertex 8.392517e+00 -1.631431e+00 8.200073e+00
      vertex 8.893921e+00 -1.961726e+00 1.080005e+01
      vertex 8.893921e+00 -1.961726e+00 8.200073e+00
    endloop
  endfacet
  facet normal 3.152233e-01 9.490175e-01 5.811056e-17
    outer loop
      vertex 9.463684e+00 -2.150992e+00 1.080005e+01
      vertex 8.893921e+00 -1.961726e+00 8.200073e+00
      vertex 8.893921e+00 -1.961726e+00 1.080005e+01
    endloop
  endfacet
  facet normal 3.152233e-01 9.490175e-01 5.811056e-17
    outer loop
      vertex 8.893921e+00 -1.961726e+00 8.200073e+00
      vertex 9.463684e+00 -2.150992e+00 1.080005e+01
      vertex 9.463684e+00 -2.150992e+00 8.200073e+00
    endloop
  endfacet
endsolid Default
